<?xml version="1.0" standalone="no"?>
<!DOCTYPE svg PUBLIC "-//W3C//DTD SVG 1.1//EN" "http://www.w3.org/Graphics/SVG/1.1/DTD/svg11.dtd" >
<svg>
<metadata>
Created by FontForge 20090622 at Wed Mar  5 05:08:54 2014
 By ffonts
1.2, Copyright &#194;&#169; Castcraft Software, Inc. 1990-1991.
</metadata>
<defs>
<font id="OPTIGoudyOpen" horiz-adv-x="550" >
  <font-face 
    font-family="OPTIGoudyOpen"
    font-weight="500"
    font-stretch="normal"
    units-per-em="1000"
    panose-1="0 0 0 0 0 0 0 0 0 0"
    ascent="684"
    descent="-316"
    x-height="373"
    cap-height="599"
    bbox="-79 -384 1147.63 819"
    underline-thickness="48"
    underline-position="-38"
    unicode-range="U+0020-U+FB02"
  />
<missing-glyph horiz-adv-x="280" 
 />
    <glyph glyph-name=".notdef" horiz-adv-x="280" 
 />
    <glyph glyph-name="space" unicode=" " horiz-adv-x="186" 
 />
    <glyph glyph-name="exclam" unicode="!" horiz-adv-x="198" 
d="M84 222c0 180 -46 300 -46 376c0 50 32 79 67 79c37 0 71 -24 71 -76c0 -70 -60 -226 -60 -378c0 -25 -32 -28 -32 -1zM124 598c0 34 -13 54 -31 54c-19 0 -33 -25 -33 -54c0 -61 30 -152 36 -263c4 131 28 195 28 263zM98 4c21 0 33 22 33 44c0 28 -14 43 -36 43
c-20 0 -36 -24 -36 -42c0 -27 24 -45 39 -45zM107 111c38 0 68 -28 68 -63c0 -34 -30 -63 -68 -63s-67 29 -67 63c0 35 29 63 67 63z" />
    <glyph glyph-name="quotedbl" unicode="&#x22;" horiz-adv-x="226" 
d="M82 341h-22l-19 209c-8 91 -6 131 32 131s34 -41 26 -134zM182 341h-23l-18 209c-8 91 -6 131 31 131c38 0 35 -41 27 -134z" />
    <glyph glyph-name="numbersign" unicode="#" horiz-adv-x="639" 
d="M358 585l-62 -181h138l63 181h48l-62 -181h134l-15 -41h-133l-50 -143h135l-14 -40h-134l-61 -181h-49l61 181h-138l-62 -181h-50l62 181h-131l14 40h131l50 143h-132l14 41h132l62 181h49zM232 220h139l50 143h-139z" />
    <glyph glyph-name="dollar" unicode="$" horiz-adv-x="461" 
d="M307 564c42 -36 28 -89 57 -89c9 0 13 10 13 22c0 22 -29 50 -70 67zM132 10c-51 38 -23 98 -52 98c-8 0 -15 -8 -15 -23c0 -33 26 -58 67 -75zM255 232v-220c72 4 110 40 110 99c0 58 -50 90 -110 121zM220 604v46c0 9 5 12 18 16c10 2 17 0 17 -12v-50
c79 -4 159 -50 159 -117c0 -32 -19 -51 -45 -51c-22 0 -36 16 -42 38c-13 47 -24 87 -72 96v-210c87 -44 184 -90 184 -200c0 -94 -85 -181 -184 -188v-122c0 -9 -4 -12 -17 -16c-11 -3 -18 -1 -18 11v128c-106 5 -182 49 -182 115c0 26 22 52 51 52c22 0 44 -9 51 -48
c7 -42 34 -71 80 -78v235c-80 40 -165 85 -165 188c0 114 79 161 165 167zM220 377v193c-67 -4 -98 -47 -98 -86c0 -48 43 -79 98 -107zM381 107c7 7 18 27 18 48c0 150 -332 135 -310 336c-9 -10 -16 -27 -16 -52c0 -189 319 -174 308 -332z" />
    <glyph glyph-name="percent" unicode="%" horiz-adv-x="643" 
d="M240 389c23 14 33 43 33 79c0 40 -18 73 -41 88c14 -18 23 -51 23 -88c0 -36 -8 -65 -15 -79zM53 468c0 -34 20 -75 40 -89c-13 21 -24 58 -24 89c0 26 6 60 17 81c-13 -8 -33 -40 -33 -81zM173 599c82 0 135 -59 135 -131c0 -74 -55 -132 -135 -132s-135 58 -135 132
c0 72 54 131 135 131zM173 579c-43 0 -67 -50 -67 -111c0 -63 25 -112 67 -112c44 0 67 49 67 112c0 61 -23 111 -67 111zM554 52c22 14 33 43 33 79c0 40 -18 73 -41 88c14 -18 23 -51 23 -88c0 -36 -8 -65 -15 -79zM366 131c0 -34 20 -75 41 -90c-13 22 -24 59 -24 90
c0 25 6 60 17 81c-13 -8 -34 -40 -34 -81zM487 262c82 0 134 -59 134 -131c0 -74 -54 -132 -134 -132s-135 58 -135 132c0 72 53 131 135 131zM487 242c-44 0 -67 -50 -67 -111c0 -63 25 -112 67 -112c44 0 67 49 67 112c0 61 -23 111 -67 111zM246 4c-4 -9 -7 -13 -17 -13
h-76c-8 0 -10 4 -6 13l272 601c5 10 7 13 17 13h77c7 0 10 -3 6 -13zM438 579l-250 -549h23l250 549h-23z" />
    <glyph glyph-name="ampersand" unicode="&#x26;" horiz-adv-x="750" 
d="M214 405c25 6 58 12 91 12c45 0 86 -14 86 -55c0 -30 -49 -53 -83 -53c-31 0 -56 14 -96 35c-50 -50 -66 -109 -66 -164c-1 -62 11 -162 167 -162c173 0 253 128 253 213c0 38 -17 78 -73 78c-47 0 -79 -25 -79 -67c0 -29 -29 -32 -29 1c0 56 32 171 124 171
c45 0 82 -12 124 -12c45 0 64 34 72 58c5 15 27 18 24 -4c-11 -90 -57 -146 -133 -153c6 -16 9 -34 9 -52c0 -188 -163 -271 -315 -271c-94 0 -252 33 -252 178c0 125 75 202 141 235c-3 12 -4 24 -4 37c0 114 109 170 197 170c58 0 118 -33 118 -93c0 -34 -28 -62 -60 -62
c-26 0 -47 19 -47 41c0 21 6 28 6 46c0 13 -14 28 -39 28c-78 0 -142 -76 -142 -123c0 -6 1 -27 6 -32zM411 497c0 -10 9 -17 19 -17c9 0 15 11 15 24c0 23 -22 43 -40 53c15 -22 6 -42 6 -60zM245 368c27 -14 38 -19 64 -19c16 0 37 5 37 15c0 9 -39 17 -47 17
c-26 0 -45 -6 -54 -13zM515 362c-52 0 -73 -20 -81 -37c21 8 62 10 86 10c54 0 85 -2 113 17c-48 -3 -65 10 -118 10zM62 158c0 -67 38 -110 96 -137c-44 33 -65 103 -65 143c0 71 21 139 55 184c-47 -38 -86 -88 -86 -190z" />
    <glyph glyph-name="quoteright" unicode="&#x2019;" horiz-adv-x="165" 
d="M25 358c32 28 53 53 53 97c0 48 -40 66 -40 84c0 11 10 22 20 35c10 12 19 25 29 25c30 0 56 -47 56 -90c0 -76 -57 -133 -106 -172c-14 -11 -27 8 -12 21zM75 527c9 -11 22 -29 26 -53c6 9 9 24 9 39c0 19 -8 33 -15 41c-9 10 -12 9 -20 -2c-9 -12 -7 -16 0 -25z" />
    <glyph glyph-name="parenleft" unicode="(" horiz-adv-x="359" 
d="M187 40c-63 73 -91 175 -91 255c0 92 16 149 47 215c-47 -49 -81 -131 -81 -215c0 -72 17 -170 125 -255zM337 578c-130 -6 -201 -130 -194 -283c7 -141 80 -263 194 -285v-38c-189 12 -299 152 -299 323s110 312 299 323v-40z" />
    <glyph glyph-name="parenright" unicode=")" horiz-adv-x="364" 
d="M38 618c193 -10 304 -150 304 -323s-111 -313 -304 -323v38c134 2 207 130 199 285c-7 143 -81 263 -199 283v40zM153 544c59 -52 107 -158 107 -249c0 -101 -15 -155 -51 -213c54 39 85 112 85 213c0 100 -45 209 -141 249z" />
    <glyph glyph-name="asterisk" unicode="*" horiz-adv-x="365" 
d="M199 539l13 -7c27 30 56 63 80 76c17 10 38 4 47 -13c9 -16 4 -35 -13 -45c-23 -13 -65 -23 -106 -33l-1 -13c40 -10 84 -19 108 -32c15 -10 20 -29 11 -47c-10 -16 -29 -21 -46 -12c-23 13 -52 47 -82 74l-11 -6c13 -38 26 -81 26 -108c0 -19 -16 -34 -35 -34
s-34 15 -34 34c0 26 14 68 26 108l-12 7c-27 -30 -58 -64 -81 -77c-16 -9 -36 -3 -47 13c-8 17 -2 38 13 46c24 14 67 23 106 34v14c-40 7 -83 18 -107 32c-16 9 -21 30 -12 46s30 22 46 12c23 -13 52 -45 81 -76l13 6c-13 39 -26 83 -26 109c0 19 15 34 33 34
c19 0 34 -15 34 -34c0 -27 -14 -69 -24 -108zM231 534c23 5 54 22 69 35c9 8 4 24 -10 18c-18 -9 -45 -38 -59 -53zM146 533c-13 12 -47 35 -65 43c-14 7 -21 -12 -10 -18c19 -8 52 -20 75 -25zM150 487c-22 -6 -60 -17 -76 -27c-13 -11 -1 -23 11 -19c14 4 49 28 65 46z
M187 458c-6 -22 -16 -60 -14 -79c1 -17 20 -13 21 -1c3 21 0 58 -7 80zM188 564c3 16 7 57 5 76c-1 16 -22 13 -21 0c2 -20 10 -54 16 -76zM227 488c18 -15 49 -45 63 -53c10 -7 23 8 10 19c-16 10 -50 28 -73 34zM184 518c-4 0 -9 -3 -9 -9c0 -5 5 -9 9 -9c5 0 10 4 10 9
c0 6 -5 9 -10 9z" />
    <glyph glyph-name="plus" unicode="+" horiz-adv-x="557" 
d="M259 507h55v-226h222v-53h-221v-228h-56v228h-221v52h221v227z" />
    <glyph glyph-name="comma" unicode="," horiz-adv-x="165" 
d="M25 -143c32 28 53 52 53 97c0 48 -40 66 -40 84c0 10 10 22 20 35c10 12 19 25 29 25c30 0 56 -47 56 -90c0 -76 -57 -133 -106 -172c-14 -11 -27 8 -12 21zM75 26c9 -11 22 -29 26 -54c6 10 9 25 9 40c0 18 -8 33 -15 41c-9 9 -12 8 -20 -2c-9 -12 -7 -16 0 -25z" />
    <glyph glyph-name="hyphen" unicode="-" horiz-adv-x="303" 
d="M62 128c-17 0 -24 6 -24 25v47c0 19 7 25 24 25h195c17 0 24 -6 24 -25v-47c0 -19 -7 -25 -24 -25h-195zM74 155h154c7 0 10 1 10 12v2c0 11 -3 13 -10 13h-154c-7 0 -9 -2 -9 -13v-2c0 -11 2 -12 9 -12z" />
    <glyph glyph-name="period" unicode="." horiz-adv-x="163" 
d="M90 91c28 0 52 -24 52 -52c0 -29 -24 -52 -52 -52c-29 0 -52 23 -52 52c0 28 23 52 52 52zM79 53c-9 0 -17 -8 -17 -17c0 -8 8 -16 17 -16c8 0 16 8 16 16c0 9 -8 17 -16 17z" />
    <glyph glyph-name="slash" unicode="/" horiz-adv-x="328" 
d="M138 4c-2 -9 -4 -13 -14 -13h-76c-8 0 -12 4 -9 13l167 601c3 10 4 13 14 13h76c8 0 12 -3 9 -13zM229 579l-154 -549h24l153 549h-23z" />
    <glyph glyph-name="zero" unicode="0" 
d="M379 62c36 23 51 69 51 124c0 64 -29 115 -64 138c22 -28 36 -79 36 -138c0 -55 -12 -102 -23 -124zM86 186c0 -53 32 -116 63 -139c-20 33 -38 91 -38 139c0 41 10 95 27 128c-20 -14 -52 -63 -52 -128zM274 391c127 0 211 -92 211 -205c0 -114 -86 -206 -211 -206
c-124 0 -211 92 -211 206c0 113 84 205 211 205zM274 360c-68 0 -105 -78 -105 -174c0 -97 39 -174 105 -174c68 0 105 77 105 174c0 96 -37 174 -105 174z" />
    <glyph glyph-name="one" unicode="1" 
d="M243 239c0 96 -12 113 -95 115c-20 1 -19 25 0 25c24 0 97 -8 146 -8s125 8 139 8c19 0 20 -24 0 -25c-79 -2 -95 -20 -95 -115v-107c0 -101 17 -113 95 -116c20 -1 19 -25 0 -25c-14 0 -92 9 -139 9c-49 0 -122 -9 -146 -9c-19 0 -20 24 0 25c78 3 95 18 95 116v107z
M270 132c0 -39 -2 -81 -18 -102h61c-17 20 -18 53 -18 102v107c0 49 1 82 18 102h-61c16 -21 18 -64 18 -102v-107z" />
    <glyph glyph-name="two" unicode="2" 
d="M292 81h36c61 0 112 -4 167 51c14 14 28 1 20 -15c-2 -6 -33 -65 -53 -107c-9 -18 -13 -19 -30 -19h-345c-18 0 -20 22 3 31c104 39 245 115 245 204c0 58 -48 115 -107 115c-51 0 -83 -24 -83 -51c0 -17 10 -25 15 -31c13 -14 -2 -32 -17 -20c-11 7 -30 25 -30 49
c0 49 46 103 153 103c109 0 165 -54 165 -123c0 -97 -103 -143 -139 -187zM356 198c16 13 24 47 24 70c0 53 -61 79 -93 79c41 -20 73 -67 73 -121c0 -10 -1 -19 -4 -28zM201 41l-51 -24h269l13 24h-231z" />
    <glyph glyph-name="three" unicode="3" 
d="M317 101c76 -39 123 -91 123 -168c0 -123 -99 -226 -243 -226c-60 0 -121 26 -121 62c0 16 14 26 31 26c31 0 55 -54 99 -54c88 0 150 54 150 145c0 88 -76 150 -155 150c-9 0 -24 0 -36 -2c-12 -3 -17 10 -5 16c95 49 148 92 148 182c0 59 -31 102 -93 102
c-38 0 -71 -24 -71 -44c0 -12 7 -21 12 -26c8 -12 -8 -23 -19 -12c-10 10 -20 25 -20 43c0 51 56 96 141 96c89 0 140 -60 140 -141c0 -55 -22 -92 -81 -149zM325 181c15 19 27 39 27 69c0 47 -37 91 -88 95c42 -17 68 -61 68 -113c0 -18 -2 -32 -7 -51zM396 -68
c0 64 -72 131 -136 142l-27 -19c87 -15 147 -88 147 -169c0 -14 -1 -29 -5 -42c15 25 21 62 21 88z" />
    <glyph glyph-name="four" unicode="4" 
d="M375 289v-255h-263l-25 -27h288v-242h27v242h65l5 27h-70v280zM445 96c0 -14 4 -19 17 -19h48c18 0 21 -11 15 -26c-8 -19 -8 -28 -10 -48c-1 -14 -9 -23 -20 -23h-33c-12 0 -17 -4 -17 -15v-209c0 -15 -2 -22 -18 -22h-61c-12 0 -18 2 -18 15v216c0 12 -2 15 -13 15
h-275c-25 0 -29 20 -12 36l369 356c13 13 28 9 28 -16v-260zM157 77h191v184z" />
    <glyph glyph-name="five" unicode="5" 
d="M485 379c-10 -25 -24 -68 -28 -78c-5 -14 -9 -18 -25 -18h-225c-13 0 -13 -5 -17 -12l-28 -69c-3 -6 -1 -9 6 -10c107 -13 269 -55 269 -226c0 -144 -117 -256 -248 -256c-61 0 -116 24 -141 45c-11 9 0 24 14 15c32 -20 86 -33 124 -33c91 0 160 93 160 178
c0 135 -127 199 -226 190c-35 -3 -40 0 -27 30l96 227c7 17 9 17 34 17h189c24 0 43 9 54 16c10 7 25 -1 19 -16zM207 309h203l9 27h-201zM131 129c108 3 239 -69 239 -214c0 -24 -4 -50 -10 -66c20 28 32 78 32 117c0 111 -141 191 -253 182z" />
    <glyph glyph-name="six" unicode="6" 
d="M436 582c-107 -12 -213 -116 -249 -248c39 28 87 45 131 45c104 0 168 -93 168 -190c0 -112 -77 -209 -204 -209c-131 0 -212 125 -212 249c0 175 152 375 360 375c20 0 21 -20 6 -22zM94 229c0 -52 18 -114 48 -153c-11 24 -23 79 -23 120c0 154 87 284 139 333
c-77 -50 -164 -175 -164 -300zM161 197c0 -105 56 -187 122 -187c62 0 107 57 107 151c0 116 -51 177 -123 177s-106 -59 -106 -141zM400 76c29 28 37 65 37 112s-32 116 -71 130c35 -41 48 -95 48 -157c0 -30 -3 -57 -14 -85z" />
    <glyph glyph-name="seven" unicode="7" 
d="M111 -247l281 530h-210c-63 0 -70 0 -91 -30c-11 -16 -29 -10 -24 10l25 97c4 14 11 19 31 19h319c39 0 47 -12 31 -42l-275 -516c-21 -39 -30 -70 -40 -92c-11 -23 -15 -28 -37 -18c-22 11 -25 14 -10 42zM123 309h283l14 27h-290z" />
    <glyph glyph-name="eight" unicode="8" 
d="M340 332c100 -35 147 -95 147 -181c0 -107 -103 -177 -211 -177c-113 0 -205 52 -205 157c0 74 47 130 110 159c-56 38 -76 92 -76 140c0 79 64 166 170 166c97 0 163 -57 163 -135c0 -57 -45 -107 -98 -129zM273 565c-54 0 -111 -33 -111 -103c0 -58 97 -102 145 -117
c55 34 78 77 78 120c0 50 -38 100 -112 100zM416 120c0 -22 -5 -41 -17 -66c31 23 46 64 46 97c0 165 -226 124 -314 266c26 -185 285 -110 285 -297zM129 144c0 -91 65 -139 146 -139c70 0 117 46 117 115c0 94 -85 116 -186 154c-33 -12 -77 -56 -77 -130z" />
    <glyph glyph-name="nine" unicode="9" 
d="M69 -278c134 55 250 167 299 307c-41 -25 -87 -44 -127 -44c-107 0 -193 82 -193 193c0 128 102 212 223 212c133 0 220 -98 220 -248c0 -235 -187 -438 -418 -438c-14 0 -16 13 -4 18zM146 204c0 -108 64 -178 142 -178c72 0 116 59 116 157c0 110 -62 175 -139 175
c-86 0 -119 -73 -119 -154zM72 178c0 -69 46 -135 109 -162c-46 40 -82 91 -82 187c0 35 13 92 22 109c-28 -24 -49 -89 -49 -134zM428 183c0 -136 -94 -324 -225 -410c135 44 240 230 240 365c0 40 -9 82 -26 117c6 -18 11 -47 11 -72z" />
    <glyph glyph-name="colon" unicode=":" horiz-adv-x="163" 
d="M90 91c28 0 52 -24 52 -52c0 -29 -24 -52 -52 -52c-29 0 -52 23 -52 52c0 28 23 52 52 52zM79 53c-9 0 -17 -8 -17 -17c0 -8 8 -16 17 -16c8 0 16 8 16 16c0 9 -8 17 -16 17zM90 366c28 0 52 -23 52 -51c0 -29 -24 -52 -52 -52c-29 0 -52 23 -52 52c0 28 23 51 52 51z
M79 328c-9 0 -17 -7 -17 -16s8 -16 17 -16c8 0 16 7 16 16s-8 16 -16 16z" />
    <glyph glyph-name="semicolon" unicode=";" horiz-adv-x="165" 
d="M90 366c28 0 52 -23 52 -51c0 -29 -24 -52 -52 -52c-29 0 -52 23 -52 52c0 28 23 51 52 51zM79 328c-9 0 -17 -7 -17 -16s8 -16 17 -16c8 0 16 7 16 16s-8 16 -16 16zM25 -143c32 28 53 52 53 97c0 48 -40 66 -40 84c0 10 10 22 20 35c10 12 19 25 29 25
c30 0 56 -47 56 -90c0 -76 -57 -133 -106 -172c-14 -11 -27 8 -12 21zM75 26c9 -11 22 -29 26 -54c6 10 9 25 9 40c0 18 -8 33 -15 41c-9 9 -12 8 -20 -2c-9 -12 -7 -16 0 -25z" />
    <glyph glyph-name="less" unicode="&#x3c;" horiz-adv-x="548" 
d="M526 475l-395 -163l395 -162v-80l-488 207v70l488 207v-79z" />
    <glyph glyph-name="equal" unicode="=" horiz-adv-x="844" 
d="M38 475h784v-65h-784v65zM38 220h784v-65h-784v65z" />
    <glyph glyph-name="greater" unicode="&#x3e;" horiz-adv-x="548" 
d="M38 475v79l488 -207v-70l-488 -207v80l395 162z" />
    <glyph glyph-name="question" unicode="?" horiz-adv-x="305" 
d="M175 264c-10 0 -13 -4 -13 -15v-79c0 -21 -31 -20 -31 0c0 15 3 63 3 84s-3 67 -3 86c0 7 4 14 15 14c50 0 78 31 78 90s-33 95 -55 95c-31 0 -52 -33 -89 -33c-23 0 -42 16 -42 39c0 31 30 61 64 61c92 0 181 -127 181 -215c0 -63 -40 -127 -108 -127zM162 333v-28
c53 0 96 41 81 111c-9 -53 -35 -80 -81 -83zM99 583c-17 0 -31 -11 -31 -24c0 -10 9 -16 18 -16c16 0 35 14 46 32c-7 6 -21 8 -33 8zM147 91c28 0 52 -24 52 -52c0 -29 -24 -52 -52 -52c-29 0 -52 23 -52 52c0 28 23 52 52 52zM136 53c-9 0 -17 -8 -17 -17
c0 -8 8 -16 17 -16c8 0 16 8 16 16c0 9 -8 17 -16 17z" />
    <glyph glyph-name="at" unicode="@" horiz-adv-x="879" 
d="M526 150c-49 -69 -95 -93 -162 -87c-45 4 -85 26 -110 79c-28 61 -4 176 37 238c50 75 110 114 179 110c33 -2 72 -20 92 -59c4 -7 6 -13 12 -34l22 78h76l-52 -195c-8 -29 -39 -106 -9 -138c14 -15 39 -17 65 -13c55 9 93 54 117 116c26 67 26 197 -27 270
c-75 102 -223 129 -304 124c-121 -8 -241 -58 -319 -203c-53 -97 -63 -254 -1 -366c66 -118 198 -163 299 -169c107 -6 210 20 334 96l23 -33c-173 -117 -375 -141 -527 -73c-146 66 -212 168 -230 303c-14 109 19 280 150 386c130 104 330 120 452 78
c111 -39 184 -124 207 -229c18 -82 4 -228 -82 -310c-42 -41 -119 -64 -164 -52c-42 11 -64 32 -78 83zM384 375c-40 -60 -73 -165 -52 -217c10 -24 30 -40 50 -43c28 -5 60 6 85 30c49 46 87 174 79 226c-4 27 -19 47 -44 59c-23 11 -48 7 -71 -6c-18 -10 -33 -27 -47 -49z
" />
    <glyph glyph-name="A" unicode="A" horiz-adv-x="712" 
d="M352 494l150 -389c5 -14 17 -43 26 -66h43c-8 19 -28 72 -31 80l-165 426zM325 436l-82 -178c-5 -10 -2 -15 8 -15h148c18 0 18 2 11 20l-68 174c-5 13 -12 10 -17 -1zM182 124c-43 -95 -39 -112 17 -114c20 -1 19 -25 0 -25c-24 0 -59 6 -83 6s-55 -6 -72 -6
c-19 0 -20 24 0 25c63 2 65 24 106 114l161 351c5 11 6 22 3 31c-4 11 -11 16 -13 26c-5 15 8 20 23 35c14 14 26 31 35 43c9 14 26 9 32 -3l192 -486c38 -96 42 -111 102 -113c19 -1 19 -25 0 -25c-25 0 -74 8 -122 8c-59 0 -108 -8 -122 -8c-19 0 -20 24 0 25
c55 2 55 26 23 113l-22 60c-7 19 -12 22 -31 22h-179c-12 0 -15 -2 -19 -11z" />
    <glyph glyph-name="B" unicode="B" horiz-adv-x="578" 
d="M227 528v-154c0 -37 3 -42 32 -42c96 0 137 46 137 117c0 95 -62 118 -142 118c-19 0 -27 -7 -27 -39zM388 545c24 -29 32 -70 32 -96c-1 -33 -10 -65 -35 -98c45 16 75 53 75 97c0 46 -24 81 -72 97zM227 73c0 -48 4 -58 65 -58c123 0 157 71 157 148
c0 105 -83 139 -189 139c-28 0 -33 -2 -33 -13v-216zM440 49c48 31 72 72 72 114c1 46 -25 89 -81 111c28 -26 42 -72 42 -111c0 -41 -11 -85 -33 -114zM122 458c0 70 -12 114 -69 116c-20 1 -19 25 0 25c11 0 65 -6 117 -6c47 0 101 6 127 6c126 0 208 -46 208 -149
c0 -51 -27 -102 -70 -126c64 -17 122 -61 122 -151c0 -106 -76 -186 -221 -186c-39 0 -123 7 -163 7c-39 0 -96 -3 -120 -3c-19 0 -20 24 0 25c56 2 69 46 69 116v326zM149 132c0 -39 -2 -81 -18 -102h71c-17 20 -18 53 -18 102v428h-53c16 -21 18 -63 18 -102v-326z" />
    <glyph glyph-name="C" unicode="C" horiz-adv-x="653" 
d="M187 40c-63 73 -91 175 -91 255c0 92 16 149 47 215c-47 -49 -81 -131 -81 -215c0 -72 17 -170 125 -255zM554 481v61c-10 -10 -29 -7 -54 2c23 -16 39 -40 54 -63zM612 78c-48 -62 -141 -106 -251 -106c-204 0 -323 145 -323 323s119 323 323 323c101 0 142 -42 171 -42
c17 0 27 4 33 13c11 15 31 9 30 -11c-5 -61 6 -139 8 -205c1 -21 -23 -24 -27 -5c-22 118 -99 213 -229 213c-137 0 -211 -130 -204 -286c8 -157 96 -285 233 -285c93 0 156 24 220 81c12 11 25 -1 16 -13z" />
    <glyph glyph-name="D" unicode="D" horiz-adv-x="697" 
d="M486 528c57 -47 101 -147 101 -233c0 -94 -15 -145 -47 -201c49 37 90 107 90 201s-54 197 -144 233zM227 528v-460c0 -23 -1 -30 23 -36c21 -6 63 -7 125 -7c128 0 197 123 191 270c-7 147 -90 270 -219 270c-41 0 -81 -1 -104 -9c-11 -5 -16 -16 -16 -28zM213 0
c-48 0 -136 -9 -160 -9c-19 0 -20 24 0 25c56 2 69 46 69 116v326c0 70 -12 114 -69 116c-20 1 -19 25 0 25c24 0 102 -9 150 -9c59 0 108 9 169 9c192 0 303 -137 303 -304c0 -168 -111 -304 -303 -304c-14 0 -100 9 -159 9zM149 132c0 -39 -2 -81 -18 -102h71
c-17 20 -18 53 -18 102v428h-53c16 -21 18 -63 18 -102v-326z" />
    <glyph glyph-name="E" unicode="E" horiz-adv-x="640" 
d="M518 520l-16 44h-64c24 -8 59 -26 80 -44zM149 132c0 -39 -2 -81 -18 -102h71c-17 20 -18 53 -18 102v428h-53c16 -21 18 -63 18 -102v-326zM122 458c0 70 -12 114 -69 116c-20 1 -19 25 0 25h470c17 0 25 -3 28 -23c6 -46 13 -71 33 -145c3 -10 -11 -18 -18 -7
c-52 88 -129 136 -295 136c-38 0 -44 -9 -44 -28v-176c0 -9 3 -12 13 -12h123c70 0 113 13 116 69c1 20 25 19 25 0c0 -23 -6 -56 -6 -87c0 -41 6 -79 6 -93c0 -19 -24 -20 -25 0c-3 57 -31 70 -116 70h-121c-12 0 -15 -4 -15 -15v-166c0 -72 20 -92 69 -92
c196 0 223 56 302 139c10 11 26 4 19 -14l-54 -141c-9 -23 -11 -24 -38 -23c0 0 -285 9 -350 9c-49 0 -98 -9 -122 -9c-19 0 -20 24 0 25c56 2 69 46 69 116v326zM462 22h61l23 51c-20 -19 -57 -41 -84 -51z" />
    <glyph glyph-name="F" unicode="F" horiz-adv-x="588" 
d="M227 356c0 -9 3 -12 13 -12h123c70 0 113 13 116 69c1 20 25 19 25 0c0 -23 -6 -56 -6 -87c0 -41 6 -79 6 -93c0 -19 -24 -20 -25 0c-3 57 -31 70 -116 70h-121c-12 0 -15 -4 -15 -15v-156c0 -84 13 -114 69 -116c20 -1 19 -25 0 -25c-13 0 -63 9 -121 9
c-49 0 -98 -9 -122 -9c-19 0 -20 24 0 25c56 2 69 46 69 116v326c0 70 -12 114 -69 116c-20 1 -19 25 0 25h470c17 0 25 -3 28 -23c6 -46 13 -71 33 -145c3 -10 -11 -18 -18 -7c-52 88 -129 136 -295 136c-38 0 -44 -9 -44 -28v-176zM149 132c0 -39 -2 -81 -18 -102h71
c-17 20 -18 53 -18 102v428h-53c16 -21 18 -63 18 -102v-326zM518 520l-16 44h-64c24 -8 59 -26 80 -44z" />
    <glyph glyph-name="G" unicode="G" horiz-adv-x="761" 
d="M187 40c-63 73 -91 175 -91 255c0 92 16 149 47 215c-47 -49 -81 -131 -81 -215c0 -72 17 -170 125 -255zM581 492v46c-12 -8 -28 -2 -52 3c25 -15 36 -28 52 -49zM658 95c1 -15 1 -17 -22 -29c-34 -18 -140 -94 -275 -94c-204 0 -323 145 -323 323s119 323 323 323
c101 0 178 -42 208 -42c16 0 27 4 33 13c10 15 30 9 29 -11c-5 -61 7 -139 9 -205c1 -21 -23 -24 -27 -5c-22 118 -136 213 -266 213c-137 0 -211 -130 -204 -286c8 -157 96 -285 233 -285c145 0 174 57 174 146c0 87 -12 115 -69 116c-20 1 -19 25 0 25c24 0 73 -8 121 -8
c59 0 108 8 122 8c19 0 20 -24 0 -25c-55 -1 -69 -31 -69 -116c0 -23 2 -46 3 -61zM612 156c0 50 1 83 18 102h-72c17 -20 18 -52 18 -102c0 -34 -1 -55 -5 -76l41 25v51z" />
    <glyph glyph-name="H" unicode="H" horiz-adv-x="761" 
d="M576 132c0 -39 -2 -81 -19 -102h72c-17 20 -18 53 -18 102v326c0 49 1 82 18 102h-72c17 -21 19 -63 19 -102v-326zM149 132c0 -39 -2 -81 -18 -102h71c-17 20 -18 53 -18 102v326c0 49 1 82 18 102h-71c16 -21 18 -63 18 -102v-326zM227 343h322v115
c0 70 -12 114 -69 116c-20 1 -19 25 0 25c24 0 73 -9 122 -9c58 0 108 9 121 9c19 0 20 -24 0 -25c-55 -2 -69 -31 -69 -116v-326c0 -84 13 -114 69 -116c20 -1 19 -25 0 -25c-13 0 -63 9 -121 9c-49 0 -98 -9 -122 -9c-19 0 -20 24 0 25c56 2 69 46 69 116v171h-322v-171
c0 -84 13 -114 69 -116c20 -1 19 -25 0 -25c-13 0 -63 9 -121 9c-49 0 -98 -9 -122 -9c-19 0 -20 24 0 25c56 2 69 46 69 116v326c0 70 -12 114 -69 116c-20 1 -19 25 0 25c24 0 73 -9 122 -9c58 0 108 9 121 9c19 0 20 -24 0 -25c-55 -2 -69 -31 -69 -116v-115z" />
    <glyph glyph-name="I" unicode="I" horiz-adv-x="334" 
d="M122 458c0 70 -12 114 -69 116c-20 1 -19 25 0 25c24 0 73 -9 122 -9c58 0 108 9 121 9c19 0 20 -24 0 -25c-55 -2 -69 -31 -69 -116v-326c0 -84 13 -114 69 -116c20 -1 19 -25 0 -25c-13 0 -63 9 -121 9c-49 0 -98 -9 -122 -9c-19 0 -20 24 0 25c56 2 69 46 69 116v326z
M149 132c0 -39 -2 -81 -18 -102h71c-17 20 -18 53 -18 102v326c0 49 1 82 18 102h-71c16 -21 18 -63 18 -102v-326z" />
    <glyph glyph-name="J" unicode="J" horiz-adv-x="333" 
d="M-48 -246c0 -29 38 -42 68 -45c-31 27 -25 63 -52 63c-7 0 -16 -4 -16 -18zM122 458c0 70 -12 114 -69 116c-20 1 -19 25 0 25c24 0 73 -9 122 -9c58 0 108 9 121 9c19 0 20 -24 0 -25c-55 -2 -69 -31 -69 -116v-500c0 -125 -71 -267 -207 -267c-66 0 -99 38 -99 78
c0 27 18 49 45 49c75 0 45 -85 106 -85c35 0 50 32 50 130v595zM149 -182c20 19 35 68 35 123v517c0 49 1 82 18 102h-71c16 -21 18 -63 18 -102v-640z" />
    <glyph glyph-name="K" unicode="K" horiz-adv-x="751" 
d="M149 132c0 -39 -2 -81 -18 -102h71c-17 20 -18 53 -18 102v326c0 49 1 82 18 102h-71c16 -21 18 -63 18 -102v-326zM281 272l230 -242h59c-24 15 -49 38 -82 73l-182 192zM608 -3c-38 0 -71 -6 -96 -6c-16 0 -19 5 -27 18c-13 23 -24 38 -61 77l-161 169l-36 -32v-91
c0 -84 13 -114 69 -116c20 -1 19 -25 0 -25c-13 0 -63 9 -121 9c-49 0 -98 -9 -122 -9c-19 0 -20 24 0 25c56 2 69 46 69 116v326c0 70 -12 114 -69 116c-20 1 -19 25 0 25c24 0 73 -9 122 -9c58 0 108 9 121 9c19 0 20 -24 0 -25c-55 -2 -69 -31 -69 -116v-179l197 179
c103 94 107 114 45 116c-20 1 -19 25 0 25c26 0 66 -6 103 -6c42 0 80 6 93 6c19 0 20 -24 0 -25c-56 -2 -74 -20 -180 -116l-144 -131l195 -205c80 -85 122 -104 179 -106c20 -1 19 -25 0 -25c-14 0 -65 6 -107 6z" />
    <glyph glyph-name="L" unicode="L" horiz-adv-x="622" 
d="M462 22h61l23 51c-20 -19 -57 -41 -84 -51zM149 132c0 -39 -2 -81 -18 -102h71c-17 20 -18 53 -18 102v326c0 49 1 82 18 102h-71c16 -21 18 -63 18 -102v-326zM563 14c-9 -23 -11 -24 -38 -23c0 0 -285 9 -350 9c-49 0 -98 -9 -122 -9c-19 0 -20 24 0 25
c56 2 69 46 69 116v326c0 70 -12 114 -69 116c-20 1 -19 25 0 25c24 0 73 -9 122 -9c58 0 108 9 121 9c19 0 20 -24 0 -25c-55 -2 -69 -31 -69 -116v-336c0 -72 20 -92 69 -92c196 0 223 56 302 139c10 11 26 4 19 -14z" />
    <glyph glyph-name="M" unicode="M" horiz-adv-x="848" 
d="M386 50l22 45l-227 465h-44zM664 132c0 -39 -2 -81 -18 -102h71c-17 20 -18 53 -18 102v326c0 49 1 82 18 102h-53v-428zM742 132c0 -84 13 -114 70 -116c19 -1 19 -25 0 -25c-14 0 -64 9 -122 9c-49 0 -98 -9 -122 -9c-19 0 -20 24 0 25c56 2 69 46 69 116v338
l-228 -469c-8 -17 -22 -17 -30 -1l-216 443v-311c0 -84 13 -114 69 -116c20 -1 20 -25 0 -25c-13 0 -51 6 -92 6c-31 0 -64 -6 -87 -6c-19 0 -20 24 0 25c56 2 69 46 69 116v326c0 70 -12 114 -69 116c-20 1 -19 25 0 25c21 0 48 -5 73 -5c24 0 47 1 62 3c13 1 18 -1 26 -17
l203 -418c6 -13 17 -14 23 -1l206 422c7 15 14 18 33 15c14 -2 20 -4 53 -4c39 0 66 5 80 5c19 0 19 -24 0 -25c-56 -2 -70 -31 -70 -116v-326z" />
    <glyph glyph-name="N" unicode="N" horiz-adv-x="779" 
d="M673 458v-458c0 -10 -4 -13 -14 -13c-17 0 -23 2 -43 23l-436 452c-9 9 -17 6 -17 -4v-326c0 -84 13 -114 69 -116c20 -1 20 -25 0 -25c-13 0 -51 6 -92 6c-31 0 -64 -6 -87 -6c-19 0 -20 24 0 25c56 2 69 46 69 116v326c0 70 -12 114 -69 116c-20 1 -19 25 0 25
c20 0 46 -4 67 -4c15 0 36 1 52 3c17 3 23 2 38 -14l397 -411c14 -15 25 -12 25 14v271c0 70 -13 113 -69 116c-20 1 -19 25 0 25c23 0 56 -6 87 -6c41 0 79 6 92 6c19 0 20 -24 0 -25c-56 -3 -69 -31 -69 -116zM632 34v49l-461 477h-47z" />
    <glyph glyph-name="O" unicode="O" horiz-adv-x="706" 
d="M361 618c204 0 324 -145 324 -323s-120 -323 -324 -323s-323 145 -323 323s119 323 323 323zM347 581c-137 0 -211 -130 -204 -286c8 -157 96 -285 233 -285s211 128 203 285c-8 156 -96 286 -232 286zM187 40c-63 73 -91 175 -91 255c0 92 16 149 47 215
c-47 -49 -81 -131 -81 -215c0 -72 17 -170 125 -255zM495 544c59 -52 107 -158 107 -249c0 -101 -15 -155 -51 -213c54 39 85 112 85 213c0 100 -45 209 -141 249z" />
    <glyph glyph-name="P" unicode="P" horiz-adv-x="549" 
d="M283 220c92 0 134 60 134 171c0 129 -68 171 -144 171c-35 0 -46 -5 -46 -35v-295c11 -6 31 -12 56 -12zM413 267c32 12 67 69 67 124c0 52 -36 119 -80 137c27 -30 40 -90 40 -137c0 -49 -10 -91 -27 -124zM149 132c0 -39 -2 -81 -18 -102h71c-17 20 -18 53 -18 102v326
c0 49 1 82 18 102h-71c16 -21 18 -63 18 -102v-326zM122 458c0 70 -12 114 -69 116c-20 1 -19 25 0 25s81 -9 123 -9c39 0 92 9 112 9c121 0 239 -64 239 -203c0 -135 -100 -210 -239 -210c-16 0 -37 2 -46 2c-12 0 -15 -5 -15 -16v-40c0 -84 13 -114 69 -116
c20 -1 19 -25 0 -25c-13 0 -63 9 -121 9c-49 0 -98 -9 -122 -9c-19 0 -20 24 0 25c56 2 69 46 69 116v326z" />
    <glyph glyph-name="Q" unicode="Q" horiz-adv-x="706" 
d="M495 544c59 -52 107 -158 107 -249c0 -101 -15 -155 -51 -213c54 39 85 112 85 213c0 100 -45 209 -141 249zM187 40c-63 73 -91 175 -91 255c0 92 16 149 47 215c-47 -49 -81 -131 -81 -215c0 -72 17 -170 125 -255zM347 581c-137 0 -211 -130 -204 -286
c8 -157 96 -286 233 -286s211 129 203 286c-8 156 -96 286 -232 286zM461 -31l220 -148c83 -56 135 -77 186 -77c22 0 44 5 57 11c14 6 23 -9 8 -17c-31 -15 -88 -38 -155 -38c-65 0 -155 29 -231 87l-200 152c-34 26 -56 37 -86 45c-142 39 -222 165 -222 311
c0 178 119 323 323 323s324 -145 324 -323c0 -146 -81 -270 -222 -310c-11 -3 -9 -11 -2 -16zM340 -28l173 -132c90 -69 187 -123 272 -119c-57 18 -130 55 -228 129l-92 70c-40 31 -96 43 -125 52z" />
    <glyph glyph-name="R" unicode="R" horiz-adv-x="691" 
d="M272 287c79 0 130 55 130 140c0 84 -44 143 -127 143c-40 0 -48 -10 -48 -51v-214c0 -11 2 -15 12 -15c6 -1 21 -3 33 -3zM479 30h53c-22 22 -33 34 -57 71l-71 109c-15 22 -28 32 -40 40h-36c13 -11 22 -26 38 -50zM149 132c0 -39 -2 -81 -18 -102h71
c-17 20 -18 53 -18 102v326c0 49 1 82 18 102h-71c16 -21 18 -63 18 -102v-326zM388 313c32 12 78 55 78 114s-34 101 -82 121c27 -27 42 -73 42 -121s-13 -84 -38 -114zM523 -9c-43 0 -51 3 -72 35l-106 160c-42 63 -52 76 -104 76c-10 0 -14 -4 -14 -13v-117
c0 -84 13 -114 69 -116c20 -1 19 -25 0 -25c-13 0 -63 9 -121 9c-49 0 -98 -9 -122 -9c-19 0 -20 24 0 25c56 2 69 46 69 116v326c0 70 -12 114 -69 116c-20 1 -19 25 0 25c24 0 73 -9 122 -9c46 0 84 9 111 9c142 0 222 -64 222 -166c0 -64 -38 -127 -94 -157
c-8 -5 -7 -12 -1 -17c9 -7 26 -23 36 -39l67 -102c51 -78 86 -100 143 -102c19 -1 19 -25 0 -25h-136z" />
    <glyph glyph-name="S" unicode="S" horiz-adv-x="477" 
d="M385 525v35c-12 6 -29 11 -51 14c25 -15 36 -28 51 -49zM404 108c4 12 9 31 9 53c0 119 -259 158 -322 301c0 -171 313 -189 313 -354zM91 13c13 3 27 3 49 0c-17 11 -37 32 -49 50v-50zM436 596c-12 -58 -3 -129 8 -223c3 -21 -26 -24 -27 -5c-6 75 -69 210 -188 210
c-46 0 -86 -31 -86 -79c0 -132 312 -152 312 -337c0 -133 -101 -190 -199 -190c-43 0 -93 14 -127 14c-22 0 -41 -13 -55 -3c-18 13 -9 58 -16 111c-9 64 -15 83 -19 127c-2 19 21 22 25 5c22 -95 82 -210 213 -210c54 0 96 32 96 92c0 138 -311 165 -311 351
c0 86 65 159 180 159c80 0 114 -27 143 -27c10 0 20 9 26 17c9 15 29 8 25 -12z" />
    <glyph glyph-name="T" unicode="T" horiz-adv-x="670" 
d="M396 532v-400c0 -84 13 -114 69 -116c20 -1 19 -25 0 -25c-14 0 -63 9 -122 9c-48 0 -98 -9 -122 -9c-19 0 -20 24 0 25c56 2 69 46 69 116v400c0 24 -6 28 -44 28c-90 0 -151 -48 -203 -136c-7 -11 -21 -3 -18 7c20 74 28 99 34 145c3 20 10 23 27 23h514
c17 0 24 -3 27 -23c6 -46 14 -71 34 -145c3 -10 -11 -18 -18 -7c-52 88 -113 136 -203 136c-38 0 -44 -4 -44 -28zM73 527c13 15 29 30 56 44h-47zM317 132c0 -39 -2 -81 -18 -102h72c-17 20 -18 53 -18 102v326c0 49 0 79 5 102h-41v-428zM586 527l-16 44h-64
c25 -7 64 -24 80 -44z" />
    <glyph glyph-name="U" unicode="U" horiz-adv-x="784" 
d="M184 458c0 49 1 82 18 102h-71c16 -21 18 -63 18 -102v-251c0 -126 70 -166 124 -186c-50 40 -89 76 -89 186v251zM680 215c0 -132 -98 -237 -251 -237c-177 0 -307 41 -307 229v251c0 70 -12 114 -69 116c-20 1 -19 25 0 25c24 0 73 -9 122 -9c58 0 108 9 121 9
c19 0 20 -24 0 -25c-55 -2 -69 -31 -69 -116v-251c0 -119 70 -185 201 -185c143 0 211 88 211 194v242c0 70 -13 113 -69 116c-20 1 -19 25 0 25c23 0 56 -6 87 -6c40 0 79 6 92 6c19 0 20 -24 0 -25c-56 -3 -69 -31 -69 -116v-243z" />
    <glyph glyph-name="V" unicode="V" horiz-adv-x="776" 
d="M399 71l-174 373c-25 53 -37 87 -31 116h-64c15 -21 22 -35 56 -108l194 -417zM406 6c-14 -29 -29 -28 -42 -1l-213 453c-42 90 -52 114 -111 116c-20 1 -19 25 0 25c24 0 73 -9 122 -9c58 0 108 9 121 9c20 0 20 -24 0 -25c-55 -2 -62 -28 -21 -116l144 -310
c9 -20 20 -21 30 -1l153 314c46 94 40 110 -16 113c-20 1 -19 25 0 25c23 0 56 -6 87 -6c41 0 79 6 93 6c19 0 20 -24 0 -25c-63 -3 -79 -21 -125 -114z" />
    <glyph glyph-name="W" unicode="W" horiz-adv-x="1156" 
d="M399 71l-174 373c-25 53 -37 87 -31 116h-64c15 -21 22 -35 56 -108l194 -417zM554 410l-22 48c-41 90 -52 114 -112 116c-20 1 -19 25 0 25c24 0 74 -9 122 -9c59 0 108 9 122 9c19 0 20 -24 0 -25c-56 -2 -63 -28 -22 -116l145 -310c9 -20 19 -21 29 -1l154 314
c46 94 40 110 -17 113c-20 1 -19 25 0 25c24 0 57 -6 88 -6c40 0 78 6 92 6c19 0 20 -24 0 -25c-63 -3 -79 -21 -124 -114l-222 -454c-14 -29 -30 -28 -43 -1l-160 339c-3 7 -8 6 -12 0l-166 -338c-14 -29 -29 -28 -42 -1l-213 453c-42 90 -52 114 -111 116
c-20 1 -19 25 0 25c24 0 73 -9 122 -9c58 0 108 9 121 9c20 0 20 -24 0 -25c-55 -2 -62 -28 -21 -116l144 -310c9 -20 20 -21 30 -1l119 243c3 7 4 9 -1 20zM780 71l-175 373c-25 53 -36 87 -31 116h-64c15 -21 22 -35 56 -108l195 -417z" />
    <glyph glyph-name="X" unicode="X" horiz-adv-x="779" 
d="M347 299l-127 159c-63 78 -88 114 -147 116c-20 1 -19 25 0 25c24 0 73 -9 121 -9c59 0 134 9 148 9c19 0 20 -24 0 -25c-55 -2 -57 -36 6 -116l66 -83c6 -8 12 -7 18 -1l79 87c71 79 80 110 24 113c-20 1 -19 25 0 25c23 0 65 -6 96 -6c41 0 87 6 101 6
c19 0 20 -24 0 -25c-63 -3 -91 -37 -162 -114l-110 -120c-7 -8 -8 -13 -1 -22l149 -186c64 -79 88 -115 147 -116c20 -1 19 -25 0 -25c-24 0 -73 9 -121 9c-59 0 -134 -9 -148 -9c-19 0 -20 24 0 25c55 1 56 38 -6 116l-88 111c-7 9 -12 9 -18 2l-104 -115
c-67 -74 -89 -112 -33 -114c20 -1 19 -25 0 -25c-24 0 -65 6 -96 6c-41 0 -87 -6 -101 -6c-19 0 -20 24 0 25c63 2 119 59 171 115l136 149c6 7 6 11 0 19zM242 475l259 -327c56 -70 55 -90 59 -118h94c-22 20 -48 45 -59 59l-319 402c-23 28 -28 35 -24 69h-92
c21 -12 49 -44 82 -85z" />
    <glyph glyph-name="Y" unicode="Y" horiz-adv-x="672" 
d="M237 475c-27 41 -35 63 -35 85h-74c15 -15 32 -35 80 -108l110 -165c5 -8 5 -10 5 -20v-135c0 -39 -1 -81 -18 -102h72c-17 20 -18 53 -18 102v150c0 9 -1 9 -7 19zM476 461c61 85 52 110 -8 113c-19 1 -19 25 0 25c24 0 57 -6 88 -6c40 0 78 6 92 6c19 0 20 -24 0 -25
c-52 -3 -62 -27 -124 -114l-117 -164c-4 -6 -5 -10 -5 -18v-146c0 -84 13 -114 69 -116c20 -1 19 -25 0 -25c-14 0 -63 9 -122 9c-48 0 -97 -9 -122 -9c-19 0 -20 24 0 25c56 2 69 46 69 116v132c0 7 0 9 -4 15l-118 179c-59 89 -75 114 -134 116c-20 1 -19 25 0 25
c24 0 73 -9 122 -9c58 0 108 9 121 9c20 0 20 -24 0 -25c-55 -2 -53 -23 8 -116l76 -115c9 -14 16 -14 26 1z" />
    <glyph glyph-name="Z" unicode="Z" horiz-adv-x="768" 
d="M80 527c12 15 28 30 55 44h-47zM711 570l-491 -516c-14 -14 -13 -25 5 -25h109c213 0 315 58 392 165c8 10 22 1 18 -7c-28 -67 -42 -126 -53 -174c-5 -19 -11 -23 -28 -23h-603c-26 0 -28 18 -12 34l486 510c16 17 8 26 -11 26h-271c-95 0 -151 -48 -203 -136
c-7 -11 -21 -3 -18 7c19 74 28 99 34 145c3 20 10 23 27 23h605c21 0 30 -13 14 -29zM660 83c-39 -35 -98 -58 -148 -65h125zM150 30c8 23 15 33 36 56l451 473h-57c-4 -12 -8 -23 -25 -40l-468 -489h63z" />
    <glyph glyph-name="bracketleft" unicode="[" horiz-adv-x="245" 
d="M224 599v-45h-101v-853h101v-45h-186v943h186z" />
    <glyph glyph-name="backslash" unicode="\" horiz-adv-x="328" 
d="M207 -15l-167 601c-3 10 1 13 8 13h76c11 0 12 -3 15 -13l167 -601c3 -9 -1 -13 -9 -13h-76c-10 0 -12 4 -14 13zM99 560h-22l153 -549h23z" />
    <glyph glyph-name="bracketright" unicode="]" horiz-adv-x="245" 
d="M38 599h186v-943h-186v45h101v853h-101v45z" />
    <glyph glyph-name="asciicircum" unicode="^" horiz-adv-x="335" 
d="M187 557c44 0 46 0 57 -15l64 -89c14 -19 7 -24 -31 -24c-27 0 -32 1 -42 11l-76 74l-77 -76c-8 -8 -13 -9 -28 -9s-19 5 -13 15l81 97c10 16 13 16 65 16zM268 455l-48 64h-32l64 -64h16z" />
    <glyph glyph-name="underscore" unicode="_" horiz-adv-x="548" 
d="M587 -175h-600v41h600v-41z" />
    <glyph glyph-name="quoteleft" unicode="&#x2018;" horiz-adv-x="165" 
d="M156 575c-32 -29 -52 -53 -52 -98c0 -47 39 -66 39 -84c0 -10 -8 -21 -19 -34c-10 -12 -19 -25 -30 -25c-29 0 -56 46 -56 90c0 76 57 133 106 172c14 11 27 -8 12 -21zM106 405c-8 12 -21 30 -26 54c-6 -10 -8 -24 -8 -40c0 -18 8 -33 14 -40c9 -10 13 -9 20 1
c10 12 7 17 0 25z" />
    <glyph glyph-name="a" unicode="a" horiz-adv-x="486" 
d="M67 73c0 -51 40 -76 95 -65c-45 10 -82 61 -80 105c-7 -8 -15 -22 -15 -40zM130 105c0 -31 24 -54 62 -54c53 0 69 25 69 86v64c-79 -18 -131 -45 -131 -96zM288 260v-162c0 -47 -2 -77 46 -93l4 7c-24 34 -23 53 -23 105v112c0 38 2 60 -34 106c6 -16 7 -45 7 -75z
M80 277c0 -10 4 -16 12 -16c20 0 21 39 25 69c-22 -14 -37 -36 -37 -53zM468 91c0 -55 -42 -112 -124 -112c-37 0 -67 18 -85 52c-37 -33 -80 -51 -120 -51c-61 0 -97 32 -97 98c0 93 133 142 219 155v38c0 48 -9 78 -39 78c-79 0 -44 -126 -123 -126c-19 0 -45 8 -45 46
c0 85 113 116 177 116c75 0 128 -25 128 -133v-145c0 -45 7 -72 33 -72c21 0 50 25 57 61c3 13 19 10 19 -5z" />
    <glyph glyph-name="b" unicode="b" horiz-adv-x="543" 
d="M219 15c-5 2 -8 1 -8 -5c1 -11 -4 -22 -17 -21c-37 3 -95 5 -141 2c-19 -1 -20 24 0 25c53 2 60 28 60 116v408c0 88 -7 111 -60 113c-20 1 -19 26 0 25c46 -2 104 0 141 3c13 1 17 -7 17 -21v-319c0 -11 6 -15 15 -7c25 22 68 51 120 51c78 0 175 -61 175 -201
s-97 -204 -194 -204c-44 0 -85 21 -108 35zM168 30v612h-46c16 -21 18 -63 18 -102v-408c0 -39 -2 -81 -18 -102h46zM211 261v-178c0 -11 2 -16 7 -23c16 -25 42 -43 85 -43c76 0 113 70 113 160s-32 164 -104 164c-46 0 -77 -29 -95 -56c-5 -8 -6 -11 -6 -24zM399 45
c43 24 68 79 68 132c0 50 -21 111 -64 138c23 -23 37 -89 37 -138c0 -46 -15 -104 -41 -132z" />
    <glyph glyph-name="c" unicode="c" horiz-adv-x="410" 
d="M117 321c-35 -24 -55 -90 -55 -139c0 -51 22 -102 57 -140c-18 31 -33 101 -33 140c0 56 13 105 31 139zM383 61c-30 -35 -94 -82 -155 -82c-112 0 -190 91 -190 203c0 111 69 203 190 203c113 0 160 -58 160 -113c0 -30 -15 -48 -43 -48c-74 0 -43 130 -117 130
c-60 0 -94 -77 -94 -172c0 -96 42 -149 122 -149c47 0 72 15 106 46c17 15 32 -5 21 -18zM308 322c9 -25 12 -58 27 -51c18 6 -10 44 -27 51z" />
    <glyph glyph-name="d" unicode="d" horiz-adv-x="536" 
d="M125 32c-24 33 -38 89 -38 143c0 45 12 112 31 147c-38 -36 -56 -87 -56 -147c0 -72 33 -123 63 -143zM341 105v180c0 11 0 16 -6 23c-14 21 -39 41 -81 41c-88 0 -117 -81 -117 -167c0 -85 35 -153 109 -153c37 0 69 30 88 54c7 10 7 13 7 22zM439 129
c0 -88 7 -111 61 -113c19 -1 19 -27 0 -26c-47 2 -105 1 -141 -2c-13 -1 -18 7 -18 21v22c0 8 -4 10 -10 5c-30 -27 -73 -56 -124 -56c-67 0 -169 49 -169 195c0 157 98 210 188 210c51 0 83 -12 102 -24c9 -5 13 -1 13 8v171c0 88 -7 111 -60 113c-20 1 -19 26 0 25
c47 -2 104 0 141 3c13 1 17 -7 17 -21v-531zM396 540v102h-46c16 -21 18 -63 18 -102v-411v-102h46c-16 21 -18 63 -18 102v411z" />
    <glyph glyph-name="e" unicode="e" horiz-adv-x="415" 
d="M117 321c-35 -24 -55 -90 -55 -139c0 -51 22 -102 57 -140c-18 31 -33 101 -33 140c0 56 13 105 31 139zM302 321c9 -25 15 -49 17 -87c6 1 35 1 35 1c0 42 -39 81 -52 86zM134 182c0 -96 42 -149 122 -149c47 0 72 15 106 46c17 15 32 -5 21 -18
c-30 -35 -94 -82 -155 -82c-112 0 -190 91 -190 203c0 111 69 203 190 203c113 0 165 -102 165 -156c0 -26 -1 -27 -25 -27h-218c-13 0 -16 -4 -16 -20zM150 235h132c12 0 15 4 15 14c0 37 -16 105 -69 105c-45 0 -75 -43 -87 -104c-2 -11 1 -15 9 -15z" />
    <glyph glyph-name="f" unicode="f" horiz-adv-x="345" 
d="M113 132v190c0 7 -1 13 -12 13h-53c-27 0 -26 38 0 38h51c12 0 14 4 14 13v63c0 140 99 231 202 231c55 0 103 -36 103 -81c0 -29 -20 -48 -47 -48c-62 0 -43 91 -94 91c-38 0 -66 -39 -66 -193v-63c0 -9 2 -13 14 -13h69c26 0 27 -38 0 -38h-71c-11 0 -12 -6 -12 -13
v-190c0 -84 8 -114 60 -116c20 -1 19 -25 0 -25c-13 0 -54 9 -113 9c-48 0 -81 -9 -105 -9c-19 0 -20 24 0 25c53 2 60 28 60 116zM365 593c7 0 11 7 11 19c0 14 -30 30 -53 33c17 -21 14 -52 42 -52zM168 449c0 38 1 70 7 115c-29 -46 -35 -65 -35 -115v-317
c0 -39 -2 -81 -18 -102h64c-17 20 -18 53 -18 102v317z" />
    <glyph glyph-name="g" unicode="g" horiz-adv-x="475" 
d="M358 304c8 -15 15 -48 15 -71c0 -93 -77 -149 -162 -149c-28 0 -66 9 -94 23c-12 0 -49 -16 -49 -53c0 -44 13 -47 112 -47c178 0 259 -29 259 -132c0 -123 -123 -187 -228 -187c-128 0 -212 48 -212 143c0 48 36 95 94 116c-39 31 -55 54 -55 91c0 43 16 67 58 86
c-28 38 -41 76 -41 110c0 84 67 151 156 151c80 0 119 -51 149 -51c34 0 32 46 83 46c23 0 36 -16 36 -39c0 -24 -21 -51 -55 -51c-23 0 -49 9 -66 14zM398 326c25 -6 44 3 36 17c-8 13 -29 -5 -36 -17zM173 -48c123 0 183 -9 221 -65c-34 81 -90 82 -221 82
c-59 0 -69 9 -88 19c10 -23 36 -36 88 -36zM54 -158c0 -81 45 -133 164 -133c98 0 166 66 166 137c0 87 -132 86 -227 86c-57 0 -103 -21 -103 -90zM213 112c52 0 65 56 65 121c0 84 -31 124 -71 124c-52 0 -64 -72 -64 -118c0 -90 28 -127 70 -127zM286 328
c17 -45 23 -102 9 -172c17 15 33 46 33 80c0 30 -17 67 -42 92zM107 315c-19 -19 -30 -54 -30 -84c0 -41 22 -71 39 -87c-18 54 -20 114 -9 171z" />
    <glyph glyph-name="h" unicode="h" horiz-adv-x="559" 
d="M168 540v102h-46c16 -21 18 -63 18 -102v-408c0 -39 -2 -81 -18 -102h64c-17 20 -18 53 -18 102v408zM419 221c0 67 -13 104 -53 119c21 -30 26 -57 26 -119v-89c0 -39 -2 -81 -19 -102h64c-17 20 -18 53 -18 102v89zM365 221c0 70 -11 115 -62 115
c-36 0 -68 -15 -85 -30c-7 -6 -7 -10 -7 -20v-154c0 -84 -1 -114 52 -116c20 -1 19 -25 0 -25c-14 0 -46 9 -105 9c-48 0 -81 -9 -105 -9c-19 0 -20 24 0 25c53 2 60 28 60 116v408c0 88 -7 111 -60 113c-20 1 -19 26 0 25c46 -2 104 0 141 3c13 1 17 -7 17 -21v-323
c33 22 81 48 138 48c91 0 113 -56 113 -164v-89c0 -84 8 -114 61 -116c20 -1 19 -25 0 -25c-14 0 -55 9 -113 9c-49 0 -73 -9 -97 -9c-19 0 -20 24 0 25c53 2 52 28 52 116v89z" />
    <glyph glyph-name="i" unicode="i" horiz-adv-x="308" 
d="M113 236c0 88 -7 111 -60 113c-20 1 -19 26 0 25c46 -2 104 -1 141 3c13 1 17 -7 17 -21v-224c0 -84 8 -114 60 -116c20 -1 19 -25 0 -25c-13 0 -54 9 -113 9c-48 0 -81 -9 -105 -9c-19 0 -20 24 0 25c53 2 60 28 60 116v104zM168 338h-46c16 -21 18 -63 18 -102v-104
c0 -39 -2 -81 -18 -102h64c-17 20 -18 53 -18 102v206zM163 593c29 0 52 -23 52 -52c0 -28 -23 -52 -52 -52c-28 0 -52 24 -52 52c0 29 24 52 52 52zM152 555c-9 0 -16 -8 -16 -17c0 -8 7 -16 16 -16s17 8 17 16c0 9 -8 17 -17 17z" />
    <glyph glyph-name="j" unicode="j" horiz-adv-x="294" 
d="M-17 -247c-8 0 -15 -6 -15 -12c0 -18 36 -31 68 -31c-30 16 -44 43 -53 43zM97 236c0 88 -7 111 -61 113c-20 1 -19 26 0 25c47 -2 105 -1 141 3c13 1 17 -7 17 -21v-359c0 -127 -36 -305 -178 -305c-50 0 -72 26 -72 58c0 23 18 41 44 41c36 0 60 -58 83 -58
c20 0 26 33 26 109v394zM124 -177c19 33 27 91 27 173v342h-46c17 -21 19 -63 19 -102v-413zM147 593c28 0 52 -23 52 -52c0 -28 -24 -52 -52 -52c-29 0 -52 24 -52 52c0 29 23 52 52 52zM136 555c-9 0 -17 -8 -17 -17c0 -8 8 -16 17 -16c8 0 16 8 16 16c0 9 -8 17 -16 17z
" />
    <glyph glyph-name="k" unicode="k" horiz-adv-x="576" 
d="M211 181l138 114c43 35 42 53 8 55c-20 1 -19 25 0 25c23 0 52 -5 79 -5c33 0 65 5 79 5c19 0 20 -24 0 -25c-53 -3 -68 -20 -126 -68l-79 -66l101 -105c74 -77 89 -90 146 -95c19 -2 19 -25 0 -25c-9 0 -45 3 -77 3c-20 0 -37 -3 -50 -3c-23 0 -29 2 -41 14l-149 152
l-29 -24c0 -85 8 -115 60 -117c20 -1 19 -25 0 -25c-13 0 -54 9 -113 9c-48 0 -81 -9 -105 -9c-19 0 -20 24 0 25c53 2 60 28 60 116v408c0 88 -7 111 -60 113c-20 1 -19 26 0 25c46 -2 104 0 141 3c13 1 17 -7 17 -21v-479zM168 540v102h-46c16 -21 18 -63 18 -102v-408
c0 -39 -2 -81 -18 -102h64c-17 20 -18 53 -18 102v408zM258 172l137 -142h35l-153 158z" />
    <glyph glyph-name="l" unicode="l" horiz-adv-x="308" 
d="M113 540c0 88 -7 111 -60 113c-20 1 -19 26 0 25c46 -2 104 0 141 3c13 1 17 -7 17 -21v-528c0 -84 8 -114 60 -116c20 -1 19 -25 0 -25c-13 0 -54 9 -113 9c-48 0 -81 -9 -105 -9c-19 0 -20 24 0 25c53 2 60 28 60 116v408zM168 540v102h-46c16 -21 18 -63 18 -102v-408
c0 -39 -2 -81 -18 -102h64c-17 20 -18 53 -18 102v408z" />
    <glyph glyph-name="m" unicode="m" horiz-adv-x="759" 
d="M168 236v102h-46c16 -21 18 -63 18 -102v-104c0 -39 -2 -81 -18 -102h64c-17 20 -18 53 -18 102v104zM402 221c0 67 -13 104 -53 119c21 -30 25 -57 25 -119v-89c0 -39 -1 -81 -18 -102h64c-17 20 -18 53 -18 102v89zM636 221c0 67 -13 104 -53 119
c21 -30 25 -57 25 -119v-89c0 -39 -1 -81 -18 -102h64c-17 20 -18 53 -18 102v89zM445 132c0 -84 1 -115 43 -116c20 -1 19 -25 0 -25c-13 0 -37 9 -96 9c-48 0 -64 -9 -88 -9c-19 0 -20 24 0 25c41 1 43 28 43 116v89c0 70 -10 115 -62 115c-35 0 -50 -15 -67 -30
c-7 -6 -7 -10 -7 -20v-154c0 -84 5 -115 43 -116c20 -1 19 -25 0 -25c-14 0 -37 9 -96 9c-48 0 -81 -9 -105 -9c-19 0 -20 24 0 25c53 2 60 28 60 116v104c0 88 -7 111 -60 113c-20 1 -19 26 0 25c46 -2 104 -1 141 3c13 1 17 -7 17 -21v-19c33 22 64 48 121 48
c48 0 76 -16 93 -47c4 -8 8 -8 15 -3c31 23 76 50 126 50c91 0 113 -56 113 -164v-89c0 -84 1 -115 44 -116c19 -1 19 -25 0 -25c-14 0 -38 9 -96 9c-49 0 -64 -9 -89 -9c-19 0 -19 24 0 25c41 1 44 28 44 116v89c0 70 -11 115 -63 115c-35 0 -50 -15 -67 -30
c-7 -6 -7 -10 -7 -20v-154z" />
    <glyph glyph-name="n" unicode="n" horiz-adv-x="559" 
d="M168 236v102h-46c16 -21 18 -63 18 -102v-104c0 -39 -2 -81 -18 -102h64c-17 20 -18 53 -18 102v104zM419 221c0 67 -13 104 -53 119c21 -30 26 -57 26 -119v-89c0 -39 -2 -81 -19 -102h64c-17 20 -18 53 -18 102v89zM365 221c0 70 -11 115 -62 115
c-36 0 -68 -15 -85 -30c-7 -6 -7 -10 -7 -20v-154c0 -84 -1 -114 52 -116c20 -1 19 -25 0 -25c-14 0 -46 9 -105 9c-48 0 -81 -9 -105 -9c-19 0 -20 24 0 25c53 2 60 28 60 116v104c0 88 -7 111 -60 113c-20 1 -19 26 0 25c46 -2 104 -1 141 3c13 1 17 -7 17 -21v-19
c33 22 81 48 138 48c91 0 113 -56 113 -164v-89c0 -84 8 -114 61 -116c20 -1 19 -25 0 -25c-14 0 -55 9 -113 9c-49 0 -73 -9 -97 -9c-19 0 -20 24 0 25c53 2 52 28 52 116v89z" />
    <glyph glyph-name="o" unicode="o" horiz-adv-x="440" 
d="M228 385c113 0 190 -92 190 -203c0 -112 -77 -203 -190 -203c-112 0 -190 91 -190 203c0 111 69 203 190 203zM228 354c-60 0 -94 -77 -94 -172c0 -96 39 -172 94 -172s94 76 94 172c0 95 -39 172 -94 172zM117 321c-35 -24 -55 -90 -55 -139c0 -51 22 -102 57 -140
c-18 31 -33 101 -33 140c0 56 13 105 31 139zM312 316c23 -21 35 -80 35 -134c0 -45 -18 -109 -31 -134c28 25 57 82 57 134c0 68 -20 108 -61 134z" />
    <glyph glyph-name="p" unicode="p" horiz-adv-x="536" 
d="M404 315c23 -21 39 -79 39 -133c0 -45 -13 -107 -35 -132c33 17 63 80 63 132c0 68 -22 108 -67 133zM168 236v102h-46c16 -21 18 -63 18 -102v-407c0 -39 -2 -81 -18 -102h64c-17 20 -18 53 -18 102v407zM211 -4v-167c0 -85 8 -113 60 -116c20 -1 19 -25 0 -25
c-13 0 -54 9 -113 9c-48 0 -81 -9 -105 -9c-19 0 -20 24 0 25c53 3 60 28 60 116v407c0 88 -7 111 -60 113c-20 1 -19 26 0 25c46 -2 104 -1 141 3c13 1 17 -7 17 -21v-22c0 -8 4 -11 10 -6c31 28 73 57 125 57c66 0 168 -50 168 -196c0 -156 -97 -209 -187 -209
c-51 0 -83 11 -103 23c-9 5 -13 2 -13 -7zM211 259v-179c0 -12 1 -16 6 -23c15 -22 40 -41 81 -41c88 0 117 81 117 166c0 86 -35 154 -109 154c-36 0 -68 -30 -87 -54c-8 -11 -8 -13 -8 -23z" />
    <glyph glyph-name="q" unicode="q" horiz-adv-x="543" 
d="M343 360c-2 12 2 17 20 21c22 5 41 11 58 23c10 8 25 5 25 -12v-563c0 -85 8 -113 60 -116c20 -1 19 -25 0 -25c-13 0 -54 9 -113 9c-48 0 -81 -9 -105 -9c-19 0 -20 24 0 25c53 3 60 28 60 116v195c0 11 -6 14 -14 6c-25 -22 -69 -50 -121 -50c-78 0 -175 61 -175 201
s98 204 194 204c45 0 80 -17 103 -31c6 -3 10 0 8 6zM348 104v178c0 11 -1 15 -7 23c-16 24 -42 42 -84 42c-77 0 -114 -70 -114 -159c0 -90 32 -165 104 -165c46 0 77 30 95 57c5 7 6 11 6 24zM403 360l-28 -9v-522c0 -39 -2 -81 -18 -102h64c-17 20 -18 53 -18 102v531z
M130 330c-41 -30 -68 -84 -68 -148c0 -69 20 -118 78 -160c-33 45 -45 121 -45 160c0 56 14 118 35 148z" />
    <glyph glyph-name="r" unicode="r" horiz-adv-x="406" 
d="M303 345c-14 0 -26 -8 -26 -8c28 -11 33 -34 63 -34c7 0 11 6 11 12c0 16 -17 30 -48 30zM211 328c34 35 62 57 103 57c43 0 84 -22 84 -65c0 -28 -19 -52 -51 -52c-53 0 -61 48 -99 48c-28 0 -37 -29 -37 -72v-112c0 -84 8 -114 60 -116c20 -1 19 -25 0 -25
c-13 0 -54 9 -113 9c-48 0 -81 -9 -105 -9c-19 0 -20 24 0 25c53 2 60 28 60 116v104c0 88 -7 111 -60 113c-20 1 -19 26 0 25c46 -2 104 -1 141 3c13 1 17 -7 17 -21v-28zM168 338h-46c16 -21 18 -63 18 -102v-104c0 -39 -2 -81 -18 -102h64c-17 20 -18 53 -18 102v206z
" />
    <glyph glyph-name="s" unicode="s" horiz-adv-x="396" 
d="M296 326l-6 20h-12zM102 295c0 -117 170 -121 197 -239c4 12 5 23 5 32c0 81 -167 110 -202 207zM80 30h21l-21 28v-28zM95 12c-14 0 -17 -8 -22 -22c-5 -12 -20 -11 -21 6c-1 14 3 42 2 71c0 23 -7 51 -10 76c-2 15 18 19 22 7c30 -82 61 -138 150 -138
c33 0 55 18 55 47c0 72 -192 105 -192 230c0 55 39 96 109 96c38 0 70 -12 89 -12c14 0 17 7 22 21c4 12 21 11 22 -5c1 -14 2 -40 5 -69c3 -23 8 -48 11 -72c2 -16 -17 -19 -22 -7c-25 69 -63 116 -124 116c-27 0 -46 -14 -46 -35c0 -79 201 -118 201 -228
c0 -78 -75 -114 -140 -114c-55 0 -95 32 -111 32z" />
    <glyph glyph-name="t" unicode="t" horiz-adv-x="389" 
d="M201 448c0 0 -12 -31 -12 -62c0 -9 3 -13 14 -13h134c26 0 27 -38 0 -38h-136c-11 0 -12 -6 -12 -13v-150c0 -113 29 -145 88 -145c37 0 70 23 86 43c10 14 28 -2 17 -16c-47 -64 -108 -74 -161 -74c-63 0 -127 27 -127 189v154c0 9 -3 12 -11 12h-50c-15 0 -23 24 -2 32
c36 13 57 26 79 42c28 19 52 40 67 56c13 15 31 8 26 -17zM99 354h19v-185c0 -57 10 -126 60 -158c-32 42 -32 91 -32 139v240z" />
    <glyph glyph-name="u" unicode="u" horiz-adv-x="559" 
d="M168 338h-46c16 -21 18 -63 18 -102v-93c0 -66 13 -103 53 -118c-21 29 -25 56 -25 118v195zM462 129c0 -88 7 -111 61 -113c20 -1 19 -27 0 -26c-47 2 -105 1 -141 -2c-13 -1 -17 7 -17 21v19c-33 -22 -82 -48 -139 -48c-90 0 -113 55 -113 163v93c0 88 -7 111 -60 113
c-20 1 -19 26 0 25c46 -2 104 -1 141 3c13 1 17 -7 17 -21v-213c0 -70 10 -114 62 -114c36 0 68 15 85 30c7 6 7 10 7 20v157c0 88 -7 111 -61 113c-20 1 -19 26 0 25c47 -2 105 -1 141 3c13 1 17 -7 17 -21v-227zM419 338h-46c17 -21 19 -63 19 -102v-107v-102h45
c-16 21 -18 63 -18 102v209z" />
    <glyph glyph-name="v" unicode="v" horiz-adv-x="523" 
d="M312 124l56 119c39 83 33 103 -17 105c-20 1 -19 25 0 25c14 0 41 -4 73 -4c25 0 52 4 76 4c19 0 19 -24 0 -25c-37 -1 -42 -7 -88 -103l-112 -236c-19 -40 -34 -44 -56 1l-117 234c-47 93 -42 103 -87 104c-20 1 -19 25 0 25c24 0 44 -6 92 -6c59 0 87 6 100 6
c20 0 20 -24 0 -25c-45 -2 -47 -20 -4 -106l58 -116c10 -19 18 -18 26 -2zM266 28l12 27l-115 230c-11 23 -13 37 -9 53h-43z" />
    <glyph glyph-name="w" unicode="w" horiz-adv-x="799" 
d="M266 28l12 27l-115 230c-11 23 -13 37 -9 53h-43zM385 280c-28 60 -31 67 -69 68c-20 1 -19 25 0 25c25 0 44 -6 93 -6c59 0 86 6 100 6c19 0 20 -24 0 -25c-46 -2 -47 -20 -4 -106l58 -116c9 -19 18 -18 26 -2l56 119c39 83 33 103 -18 105c-19 1 -19 25 0 25
c15 0 44 -4 77 -4c24 0 50 4 72 4c19 0 20 -24 0 -25c-36 -1 -41 -7 -87 -103l-113 -236c-19 -40 -33 -44 -56 1l-112 225l-108 -226c-19 -40 -34 -44 -56 1l-117 234c-47 93 -42 103 -87 104c-20 1 -19 25 0 25c24 0 44 -6 92 -6c59 0 87 6 100 6c20 0 20 -24 0 -25
c-45 -2 -47 -20 -4 -106l58 -116c10 -19 18 -18 26 -2zM543 28l12 27l-115 230c-11 23 -13 37 -10 53h-42z" />
    <glyph glyph-name="x" unicode="x" horiz-adv-x="525" 
d="M216 181l-60 78c-60 78 -68 88 -113 89c-20 1 -19 25 0 25c24 0 66 -6 114 -6c59 0 100 6 114 6c19 0 19 -24 0 -25c-49 -2 -50 -16 -3 -83l9 -13c6 -8 12 -8 17 -2l19 21c63 70 50 75 0 77c-20 1 -19 25 0 25c14 0 41 -4 73 -4c25 0 52 4 76 4c19 0 19 -24 0 -25
c-37 -1 -43 -10 -117 -91l-30 -33c-6 -7 -6 -12 -1 -19l74 -100c60 -82 68 -88 113 -89c20 -1 19 -25 0 -25c-24 0 -65 6 -114 6c-59 0 -99 -6 -113 -6c-19 0 -20 24 0 25c46 2 54 16 3 83l-27 36c-5 6 -9 7 -15 0l-37 -42c-52 -59 -48 -75 0 -77c20 -1 19 -25 0 -25
c-14 0 -42 5 -74 5c-25 0 -61 -5 -84 -5c-19 0 -20 24 0 25c40 1 69 30 126 92l49 54c6 7 6 12 1 19zM390 30l-183 241c-22 29 -27 52 -28 67h-48l183 -241c22 -29 27 -52 28 -67h48z" />
    <glyph glyph-name="y" unicode="y" horiz-adv-x="523" 
d="M266 28l12 27l-115 230c-11 23 -13 37 -9 53h-43zM226 45l-99 199c-46 93 -42 103 -87 104c-20 1 -19 25 0 25c24 0 44 -6 92 -6c59 0 87 6 100 6c20 0 20 -24 0 -25c-45 -2 -47 -20 -4 -106l58 -116c10 -19 18 -18 26 -2l56 119c39 83 33 103 -17 105c-20 1 -19 25 0 25
c14 0 41 -4 73 -4c25 0 52 4 76 4c19 0 19 -24 0 -25c-37 -1 -42 -7 -88 -103l-112 -236c-83 -175 -165 -280 -250 -280c-32 0 -54 13 -54 35c0 23 20 47 81 47c63 0 81 11 134 97c41 67 46 74 15 137zM97 -232c0 0 -24 6 -40 6c-9 0 -22 -2 -22 -10s8 -12 19 -12
c10 0 32 5 43 16z" />
    <glyph glyph-name="z" unicode="z" horiz-adv-x="500" 
d="M92 30h45c4 16 17 34 50 72l201 236h-34zM54 -9c-16 0 -22 10 -8 26l273 321s-42 4 -80 4c-124 0 -151 -11 -153 -90c0 -14 -25 -19 -25 0c0 14 7 43 7 102c0 15 5 19 21 19h328c32 0 37 -18 20 -37l-234 -275c-29 -34 -27 -42 12 -42h126c78 0 102 33 115 90
c2 11 23 11 22 -8c-2 -26 -15 -58 -28 -88c-6 -15 -10 -22 -26 -22h-370z" />
    <glyph glyph-name="braceleft" unicode="{" horiz-adv-x="455" 
d="M434 599v-29c-125 -20 -157 -48 -157 -177v-78c0 -57 0 -114 -52 -154c-43 -32 -113 -46 -158 -55c144 -19 210 -52 210 -205v-77c0 -51 6 -110 58 -146c32 -23 59 -30 99 -33v-29c-64 0 -131 8 -185 63c-38 38 -42 89 -42 152v80c0 48 -1 106 -54 140
c-31 20 -67 25 -115 33v46c116 17 169 42 169 173v79c0 72 -3 119 58 169c41 33 113 46 169 48z" />
    <glyph glyph-name="bar" unicode="|" horiz-adv-x="101" 
d="M80 -360h-42v959h42v-959z" />
    <glyph glyph-name="braceright" unicode="}" horiz-adv-x="455" 
d="M38 599c56 -2 128 -15 169 -48c61 -50 58 -97 58 -169v-79c0 -131 53 -156 169 -173v-46c-49 -8 -84 -13 -115 -33c-53 -34 -54 -92 -54 -140v-80c0 -63 -4 -114 -42 -152c-54 -55 -121 -63 -185 -63v29c40 3 67 10 99 33c51 36 57 95 57 146v77c0 153 67 186 211 205
c-45 9 -115 23 -158 55c-53 40 -53 97 -53 154v78c0 129 -31 157 -156 177v29z" />
    <glyph glyph-name="asciitilde" unicode="~" horiz-adv-x="335" 
d="M265 473c-52 -70 -127 57 -181 10c37 84 103 -38 181 -10zM314 546h-25c-5 -8 -7 -21 -14 -27c-14 -16 -30 -17 -47 -13c-59 15 -67 53 -125 36c-45 -14 -57 -74 -65 -113h25c10 20 15 28 23 34c14 11 28 10 43 4c52 -22 72 -53 123 -34c35 14 56 84 62 113z" />
    <glyph glyph-name="exclamdown" unicode="&#xa1;" horiz-adv-x="217" 
d="M92 303c0 49 -6 56 -47 58c-10 0 -10 13 0 13c12 0 49 -4 73 -4c25 0 63 4 70 4c9 0 10 -13 0 -13c-40 -2 -48 -9 -48 -58v-52c0 -51 9 -56 48 -58c10 0 9 -13 0 -13c-7 0 -46 4 -70 4s-61 -4 -73 -4c-10 0 -10 13 0 13c40 2 47 8 47 58v52zM106 251c0 -20 -1 -41 -9 -51
h31c-9 9 -10 26 -10 51v52c0 25 1 42 10 51h-31c8 -10 9 -31 9 -51v-52z" />
    <glyph glyph-name="cent" unicode="&#xa2;" horiz-adv-x="410" 
d="M308 322c9 -25 12 -58 27 -51c18 6 -10 44 -27 51zM117 321c-35 -24 -55 -90 -55 -139c0 -51 22 -102 57 -140c-18 31 -33 101 -33 140c0 56 13 105 31 139zM228 -21v-55h-17v56c-103 9 -173 96 -173 202s62 194 173 202v55h17v-54c113 0 160 -58 160 -113
c0 -30 -15 -48 -43 -48c-74 0 -43 130 -117 130v-319c9 -1 18 -2 28 -2c47 0 72 15 106 46c17 15 32 -5 21 -18c-30 -35 -94 -82 -155 -82zM211 40v311c-49 -13 -77 -84 -77 -169c0 -76 27 -125 77 -142z" />
    <glyph glyph-name="sterling" unicode="&#xa3;" horiz-adv-x="472" 
d="M290 564c43 -36 29 -89 57 -89c9 0 13 10 13 22c0 22 -28 50 -70 67zM268 269h71c26 0 27 -38 0 -38h-58c2 -12 3 -25 3 -39c0 -46 -9 -86 -33 -124h83c64 0 70 -1 92 30c11 16 28 10 23 -10l-25 -93c-4 -15 -10 -20 -30 -20h-319c-39 0 -46 13 -31 42l13 26
c11 22 12 25 41 25h53c27 36 41 70 41 120c0 15 -4 29 -10 43c1 0 -72 0 -72 0c-27 0 -26 38 0 38h52c-36 55 -90 115 -90 212c0 69 56 122 165 122c107 0 161 -49 161 -116c0 -32 -19 -51 -45 -51c-23 0 -37 16 -43 38c-13 47 -34 91 -69 91c-44 0 -78 -46 -78 -84
c0 -95 72 -138 105 -212zM216 188c0 -61 -34 -129 -69 -163h-57l-12 -23h297l7 23h-202c33 37 64 106 64 163c0 117 -120 159 -120 293c0 34 9 66 21 81c-23 -11 -49 -43 -49 -81c0 -138 120 -189 120 -293z" />
    <glyph glyph-name="fraction" unicode="&#x2044;" horiz-adv-x="697" 
d="M250 475c-27 41 -35 63 -35 85h-74c15 -15 32 -35 80 -108l110 -165c5 -8 5 -10 5 -20v-135c0 -39 -2 -81 -18 -102h72c-17 20 -18 53 -18 102v150c0 9 -1 9 -7 19zM489 461c61 85 52 110 -8 113c-19 1 -19 25 0 25c24 0 57 -6 88 -6c40 0 78 6 92 6c19 0 20 -24 0 -25
c-53 -3 -62 -27 -124 -114l-117 -164c-4 -6 -5 -10 -5 -18v-146c0 -84 13 -114 69 -116c20 -1 19 -25 0 -25c-14 0 -63 9 -122 9c-48 0 -98 -9 -122 -9c-19 0 -20 24 0 25c56 2 69 46 69 116v132c0 7 0 9 -4 15l-118 179c-59 89 -75 114 -134 116c-20 1 -19 25 0 25
c24 0 73 -9 122 -9c58 0 108 9 121 9c19 0 20 -24 0 -25c-55 -2 -53 -23 8 -116l76 -115c9 -14 16 -14 26 1zM276 746c28 0 52 -23 52 -52c0 -28 -24 -52 -52 -52c-29 0 -52 24 -52 52c0 29 23 52 52 52zM264 708c-8 0 -16 -8 -16 -17c0 -8 8 -16 16 -16c9 0 17 8 17 16
c0 9 -8 17 -17 17zM461 746c28 0 52 -23 52 -52c0 -28 -24 -52 -52 -52c-29 0 -52 24 -52 52c0 29 23 52 52 52zM449 708c-8 0 -16 -8 -16 -17c0 -8 8 -16 16 -16c9 0 17 8 17 16c0 9 -8 17 -17 17z" />
    <glyph glyph-name="florin" unicode="&#x192;" horiz-adv-x="691" 
d="M615 593c7 0 12 7 12 19c0 14 -31 30 -53 33c16 -21 14 -52 41 -52zM168 436c0 39 1 73 7 117c-25 -32 -35 -66 -35 -117v-304c0 -39 -2 -81 -18 -102h64c-17 20 -18 53 -18 102v304zM223 335c-11 0 -12 -6 -12 -13v-190c0 -84 10 -115 52 -116c20 -1 19 -25 0 -25
c-14 0 -46 9 -105 9c-48 0 -81 -9 -105 -9c-19 0 -20 24 0 25c53 2 60 28 60 116v190c0 7 -1 13 -12 13h-53c-27 0 -26 38 0 38h51c12 0 14 4 14 13v50c0 143 117 231 241 231c34 0 67 -14 86 -36c35 32 80 49 125 49c56 0 104 -36 104 -81c0 -29 -20 -48 -48 -48
c-61 0 -42 91 -94 91c-37 0 -65 -39 -65 -193v-63c0 -9 2 -13 13 -13h70c25 0 26 -38 0 -38h-71c-12 0 -12 -6 -12 -13v-190c0 -84 7 -114 60 -116c20 -1 19 -25 0 -25c-14 0 -54 9 -113 9c-49 0 -73 -9 -97 -9c-19 0 -20 24 0 25c44 1 52 28 52 116v190c0 7 -1 13 -12 13
h-129zM382 546c-29 24 -25 83 -67 83c-52 0 -104 -43 -104 -193v-50c0 -9 2 -13 14 -13h125c11 0 14 4 14 13v63c0 36 7 69 18 97zM404 580c7 0 11 7 11 19c0 14 -30 30 -53 33c17 -21 14 -52 42 -52zM418 449c0 38 2 70 7 115c-28 -46 -34 -65 -34 -115v-317
c0 -39 -2 -81 -18 -102h63c-17 20 -18 53 -18 102v317z" />
    <glyph glyph-name="section" unicode="&#xa7;" horiz-adv-x="260" 
d="M172 360c22 -16 15 -43 29 -43c4 0 6 5 6 11c0 12 -14 26 -35 32zM85 84c-25 20 -12 50 -26 50c-5 0 -8 -5 -8 -13c0 -16 13 -28 34 -37zM146 194v-109c36 1 55 20 55 51c0 27 -25 45 -55 58zM129 382v22c0 4 2 6 8 7c6 3 9 2 9 -4v-25c40 -3 80 -25 80 -60
c0 -14 -10 -24 -23 -24c-11 0 -18 8 -21 17c-7 26 -12 45 -36 50v-107c44 -21 93 -45 93 -98c0 -49 -44 -92 -93 -95v-62c0 -4 -2 -6 -9 -7c-5 -1 -8 0 -8 6v64c-53 2 -91 24 -91 57c0 13 10 26 25 26c11 0 23 -4 26 -23c3 -22 16 -37 40 -40v117c-40 20 -82 42 -82 94
c0 58 39 81 82 85zM129 267v97c-34 -1 -49 -23 -49 -43c0 -25 21 -38 49 -54zM209 132c4 4 10 15 10 25c0 75 -167 68 -156 167c-4 -5 -8 -12 -8 -26c0 -93 160 -85 154 -166z" />
    <glyph glyph-name="currency" unicode="&#xa4;" horiz-adv-x="282" 
d="M148 225h18c30 0 56 -2 84 26c7 7 14 0 9 -8c-1 -3 -16 -33 -27 -54c-4 -9 -6 -9 -14 -9h-172c-10 0 -11 11 1 15c52 19 122 57 122 102c0 30 -24 57 -53 57c-25 0 -42 -11 -42 -25c0 -8 6 -12 8 -15c6 -7 -1 -16 -9 -11c-5 5 -14 13 -14 25c0 25 22 51 76 51
s83 -26 83 -61c0 -48 -52 -71 -70 -93zM180 283c8 7 12 24 12 35c0 27 -30 40 -47 40c21 -11 37 -34 37 -61c0 -5 0 -9 -2 -14zM103 205l-26 -12h135l6 12h-115z" />
    <glyph glyph-name="quotesingle" unicode="'" horiz-adv-x="165" 
d="M25 358c32 28 53 53 53 97c0 48 -40 66 -40 84c0 11 10 22 20 35c10 12 19 25 29 25c30 0 56 -47 56 -90c0 -76 -57 -133 -106 -172c-14 -11 -27 8 -12 21zM75 527c9 -11 22 -29 26 -53c6 9 9 24 9 39c0 19 -8 33 -15 41c-9 10 -12 9 -20 -2c-9 -12 -7 -16 0 -25z" />
    <glyph glyph-name="quotedblleft" unicode="&#x201c;" horiz-adv-x="312" 
d="M303 575c-32 -29 -52 -53 -52 -98c0 -47 39 -66 39 -84c0 -10 -8 -21 -19 -34c-10 -12 -19 -25 -30 -25c-29 0 -56 46 -56 90c0 76 57 133 106 172c14 11 27 -8 12 -21zM253 405c-8 12 -21 30 -26 54c-6 -10 -8 -24 -8 -40c0 -18 7 -33 14 -40c9 -10 12 -9 20 1
c10 12 7 17 0 25zM156 575c-32 -29 -52 -53 -52 -98c0 -47 39 -66 39 -84c0 -10 -8 -21 -19 -34c-10 -12 -19 -25 -30 -25c-29 0 -56 46 -56 90c0 76 57 133 106 172c14 11 27 -8 12 -21zM106 405c-8 12 -21 30 -26 54c-6 -10 -8 -24 -8 -40c0 -18 8 -33 14 -40
c9 -10 13 -9 20 1c10 12 7 17 0 25z" />
    <glyph glyph-name="guillemotleft" unicode="&#xab;" horiz-adv-x="304" 
d="M207 328v-127h-132l-13 -13h145v-121h13v121h32l3 13h-35v140zM241 232c0 -6 3 -9 9 -9h24c9 0 10 -6 8 -13c-5 -9 -5 -14 -5 -24c-1 -8 -5 -12 -11 -12h-16c-6 0 -9 -2 -9 -8v-104c0 -8 -1 -11 -9 -11h-31c-5 0 -8 1 -8 8v107c0 6 -1 8 -6 8h-139c-12 0 -14 10 -5 18
l184 178c6 7 14 5 14 -8v-130zM98 223h95v92z" />
    <glyph glyph-name="guilsinglleft" unicode="&#x2039;" horiz-adv-x="816" 
d="M676 338h-46c16 -21 18 -63 18 -102v-104c0 -39 -2 -81 -18 -102h64c-17 20 -18 53 -18 102v206zM670 593c7 0 11 7 11 19c0 14 -30 30 -53 33c17 -21 14 -52 42 -52zM404 580c7 0 11 7 11 19c0 14 -30 30 -53 33c17 -21 14 -52 42 -52zM223 335c-11 0 -12 -6 -12 -13
v-190c0 -84 10 -115 52 -116c20 -1 19 -25 0 -25c-14 0 -46 9 -105 9c-48 0 -81 -9 -105 -9c-19 0 -20 24 0 25c53 2 60 28 60 116v190c0 7 -1 13 -12 13h-53c-27 0 -26 38 0 38h51c12 0 14 4 14 13v50c0 143 117 231 241 231c40 0 77 -20 94 -48c45 40 106 61 172 61
c55 0 103 -36 103 -81c0 -29 -19 -48 -47 -48c-61 0 -42 91 -94 91c-63 0 -109 -39 -109 -193v-63c0 -9 2 -13 14 -13h135c42 0 61 4 80 6c13 0 17 -7 17 -21v-226c0 -84 8 -114 61 -116c19 -1 19 -25 0 -25c-14 0 -55 9 -114 9c-48 0 -69 -9 -93 -9c-19 0 -20 24 0 25
c44 1 48 28 48 116v104c0 85 -31 99 -65 99h-71c-11 0 -12 -6 -12 -13v-190c0 -84 1 -114 48 -116c20 -1 19 -25 0 -25c-14 0 -42 9 -101 9c-48 0 -81 -9 -105 -9c-19 0 -20 24 0 25c53 2 60 28 60 116v190c0 7 -1 13 -12 13h-140zM392 540c-40 16 -30 89 -77 89
c-52 0 -104 -43 -104 -193v-50c0 -9 2 -13 14 -13h136c12 0 14 4 14 13v63c0 34 6 64 17 91zM168 436c0 39 1 73 7 117c-25 -32 -35 -66 -35 -117v-304c0 -39 -2 -81 -18 -102h64c-17 20 -18 53 -18 102v304zM430 449c0 38 1 70 6 115c-28 -46 -34 -65 -34 -115v-317
c0 -39 -2 -81 -18 -102h64c-18 20 -18 53 -18 102v317z" />
    <glyph glyph-name="guilsinglright" unicode="&#x203a;" horiz-adv-x="816" 
d="M430 449c0 38 1 70 6 115c-28 -46 -34 -65 -34 -115v-317c0 -39 -2 -81 -18 -102h64c-18 20 -18 53 -18 102v317zM168 436c0 39 1 73 7 117c-25 -32 -35 -66 -35 -117v-304c0 -39 -2 -81 -18 -102h64c-17 20 -18 53 -18 102v304zM392 540c-40 16 -30 89 -77 89
c-52 0 -104 -43 -104 -193v-50c0 -9 2 -13 14 -13h136c12 0 14 4 14 13v63c0 34 6 64 17 91zM404 580c7 0 11 7 11 19c0 14 -30 30 -53 33c17 -21 14 -52 42 -52zM659 674c11 0 27 6 43 7c13 1 17 -7 17 -21v-528c0 -84 8 -114 61 -116c19 -1 19 -25 0 -25
c-14 0 -55 9 -114 9c-48 0 -69 -9 -93 -9c-19 0 -20 24 0 25c44 1 48 28 48 116v408c0 36 0 62 -6 79c-7 14 -16 23 -33 23c-63 0 -109 -39 -109 -193v-63c0 -9 2 -13 14 -13h69c26 0 27 -38 0 -38h-71c-11 0 -12 -6 -12 -13v-190c0 -84 1 -114 48 -116c20 -1 19 -25 0 -25
c-14 0 -42 9 -101 9c-48 0 -81 -9 -105 -9c-19 0 -20 24 0 25c53 2 60 28 60 116v190c0 7 -1 13 -12 13h-140c-11 0 -12 -6 -12 -13v-190c0 -84 10 -115 52 -116c20 -1 19 -25 0 -25c-14 0 -46 9 -105 9c-48 0 -81 -9 -105 -9c-19 0 -20 24 0 25c53 2 60 28 60 116v190
c0 7 -1 13 -12 13h-53c-27 0 -26 38 0 38h51c12 0 14 4 14 13v50c0 143 117 231 241 231c40 0 77 -20 94 -48c45 40 98 61 172 61c17 0 30 -6 39 -6zM648 132c0 -39 -2 -81 -18 -102h64c-17 20 -18 53 -18 102v408v102h-46c16 -21 18 -63 18 -102v-408z" />
    <glyph glyph-name="fi" unicode="&#xfb01;" horiz-adv-x="554" 
d="M414 338h-46c17 -21 18 -63 18 -102v-104c0 -39 -1 -81 -18 -102h64c-17 20 -18 53 -18 102v206zM408 593c7 0 11 7 11 19c0 14 -30 30 -53 33c17 -21 14 -52 42 -52zM168 449c0 38 1 70 7 115c-29 -46 -35 -65 -35 -115v-317c0 -39 -2 -81 -18 -102h64
c-17 20 -18 53 -18 102v317zM358 680c55 0 104 -36 104 -81c0 -29 -20 -48 -48 -48c-61 0 -42 91 -94 91c-63 0 -109 -39 -109 -193v-63c0 -9 2 -13 14 -13h135c42 0 61 4 80 6c13 0 17 -7 17 -21v-226c0 -84 8 -114 61 -116c20 -1 19 -25 0 -25c-14 0 -55 9 -114 9
c-48 0 -69 -9 -93 -9c-19 0 -20 24 0 25c44 1 49 28 49 116v104c0 85 -32 99 -66 99h-71c-11 0 -12 -6 -12 -13v-190c0 -84 1 -114 48 -116c20 -1 19 -25 0 -25c-14 0 -42 9 -101 9c-48 0 -81 -9 -105 -9c-19 0 -20 24 0 25c53 2 60 28 60 116v190c0 7 -1 13 -12 13h-53
c-27 0 -26 38 0 38h51c12 0 14 4 14 13v63c0 153 120 231 245 231z" />
    <glyph glyph-name="fl" unicode="&#xfb02;" horiz-adv-x="554" 
d="M168 449c0 38 1 70 7 115c-29 -46 -35 -65 -35 -115v-317c0 -39 -2 -81 -18 -102h64c-17 20 -18 53 -18 102v317zM386 132c0 -39 -1 -81 -18 -102h64c-17 20 -18 53 -18 102v408v102h-46c17 -21 18 -63 18 -102v-408zM358 680c17 0 30 -6 40 -6s26 6 42 7
c13 1 17 -7 17 -21v-528c0 -84 8 -114 61 -116c20 -1 19 -25 0 -25c-14 0 -55 9 -114 9c-48 0 -69 -9 -93 -9c-19 0 -20 24 0 25c44 1 49 28 49 116v408c0 36 -1 62 -6 79c-7 14 -17 23 -34 23c-63 0 -109 -39 -109 -193v-63c0 -9 2 -13 14 -13h69c26 0 27 -38 0 -38h-71
c-11 0 -12 -6 -12 -13v-190c0 -84 1 -114 48 -116c20 -1 19 -25 0 -25c-14 0 -42 9 -101 9c-48 0 -81 -9 -105 -9c-19 0 -20 24 0 25c53 2 60 28 60 116v190c0 7 -1 13 -12 13h-53c-27 0 -26 38 0 38h51c12 0 14 4 14 13v63c0 136 104 231 245 231z" />
    <glyph glyph-name="endash" unicode="&#x2013;" horiz-adv-x="611" 
d="M62 128c-17 0 -24 6 -24 25v47c0 19 7 25 24 25h503c18 0 24 -6 24 -25v-47c0 -19 -6 -25 -24 -25h-503zM74 155h463c7 0 9 1 9 12v2c0 11 -2 13 -9 13h-463c-7 0 -9 -2 -9 -13v-2c0 -11 2 -12 9 -12z" />
    <glyph glyph-name="daggerdbl" unicode="&#x2021;" horiz-adv-x="267" 
d="M61 61l140 265h-104c-32 0 -36 0 -46 -15c-6 -8 -14 -5 -12 4l13 49c2 8 5 10 15 10h159c20 0 24 -6 16 -21l-137 -259c-10 -19 -15 -34 -20 -46c-5 -11 -8 -13 -19 -8s-12 7 -5 21zM67 339h141l7 14h-145z" />
    <glyph glyph-name="periodcentered" unicode="&#xb7;" horiz-adv-x="234" 
d="M74 -97c53 1 101 -27 101 -85c0 -10 -5 -25 -7 -31c9 9 16 30 16 51c0 46 -53 80 -104 76zM116 -14l-19 -42c-2 -5 -1 -8 4 -8c45 0 112 -30 112 -98c0 -58 -51 -112 -112 -112c-25 0 -49 10 -60 19c-8 7 0 21 11 15c13 -8 34 -13 49 -13c36 0 54 36 54 71
c0 53 -50 71 -88 67c-13 -1 -13 7 -11 14l41 87h19z" />
    <glyph glyph-name="bullet" unicode="&#x2022;" horiz-adv-x="163" 
d="M90 371c28 0 52 -24 52 -52c0 -29 -24 -52 -52 -52c-29 0 -52 23 -52 52c0 28 23 52 52 52zM79 333c-9 0 -17 -8 -17 -17c0 -8 8 -16 17 -16c8 0 16 8 16 16c0 9 -8 17 -16 17z" />
    <glyph glyph-name="quotedblright" unicode="&#x201d;" horiz-adv-x="312" 
d="M25 358c32 28 53 53 53 97c0 48 -40 66 -40 84c0 11 10 22 20 35c10 12 19 25 29 25c30 0 56 -47 56 -90c0 -76 -57 -133 -106 -172c-14 -11 -27 8 -12 21zM75 527c9 -11 22 -29 26 -53c6 9 9 24 9 39c0 19 -8 33 -15 41c-9 10 -12 9 -20 -2c-9 -12 -7 -16 0 -25z
M172 358c32 28 53 53 53 97c0 48 -40 66 -40 84c0 11 9 22 20 35c10 12 19 25 29 25c30 0 56 -47 56 -90c0 -76 -57 -133 -106 -172c-14 -11 -27 8 -12 21zM222 527c9 -11 22 -29 26 -53c6 9 9 24 9 39c0 19 -8 33 -15 41c-9 10 -12 9 -20 -2c-9 -12 -7 -16 0 -25z" />
    <glyph glyph-name="guillemotright" unicode="&#xbb;" horiz-adv-x="238" 
d="M216 374c-5 -13 -12 -34 -14 -40s-5 -8 -13 -8h-112c-7 0 -7 -3 -9 -6l-14 -35c-1 -2 0 -4 3 -5c54 -6 135 -28 135 -113c0 -72 -59 -128 -124 -128c-31 0 -58 12 -71 22c-6 5 0 12 7 8c17 -10 44 -16 63 -16c44 0 79 46 79 89c0 67 -63 99 -112 95c-18 -2 -20 0 -14 15
l48 114c4 7 5 8 17 8h95c11 0 21 5 27 8c5 3 12 -1 9 -8zM77 339h101l5 14h-101zM39 249c53 2 119 -35 119 -107c0 -12 -2 -25 -5 -34c10 15 16 39 16 59c0 56 -70 96 -126 91z" />
    <glyph glyph-name="grave" unicode="`" horiz-adv-x="264" 
d="M243 429h-57l-68 46c-51 35 -80 57 -80 76c0 23 21 32 41 32c29 0 50 -20 99 -78zM177 455h11l-88 84c-21 21 -39 2 -23 -10z" />
    <glyph glyph-name="acute" unicode="&#xb4;" horiz-adv-x="264" 
d="M38 429l65 76c49 58 70 78 99 78c20 0 41 -9 41 -32c0 -19 -29 -41 -80 -76l-68 -46h-57zM91 455l92 74c16 13 -2 32 -23 10l-80 -84h11z" />
    <glyph glyph-name="circumflex" unicode="&#x2c6;" horiz-adv-x="335" 
d="M187 770c44 0 46 0 57 -15l64 -89c13 -19 7 -24 -31 -24c-27 0 -32 2 -42 11l-76 75l-77 -76c-8 -8 -13 -10 -28 -10s-19 5 -13 16l81 97c10 16 13 15 65 15zM268 668l-48 64h-32l64 -64h16z" />
    <glyph glyph-name="tilde" unicode="&#x2dc;" horiz-adv-x="335" 
d="M265 686c-52 -70 -127 57 -181 11c37 83 103 -38 181 -11zM314 760h-25c-5 -9 -7 -21 -14 -28c-14 -15 -30 -16 -47 -12c-59 15 -67 53 -125 35c-45 -13 -57 -73 -65 -113h25c10 21 15 29 23 35c14 10 28 9 43 3c52 -21 72 -53 123 -33c35 13 56 83 62 113z" />
    <glyph glyph-name="breve" unicode="&#x2d8;" horiz-adv-x="194" 
d="M96 4c22 0 33 22 33 44c0 28 -14 43 -36 43c-20 0 -36 -24 -36 -42c0 -27 24 -45 39 -45zM105 111c38 0 68 -28 68 -63c0 -34 -30 -63 -68 -63s-67 29 -67 63c0 35 29 63 67 63z" />
    <glyph glyph-name="dieresis" unicode="&#xa8;" horiz-adv-x="347" 
d="M90 532c28 0 52 -23 52 -51c0 -29 -24 -52 -52 -52c-29 0 -52 23 -52 52c0 28 23 51 52 51zM79 494c-9 0 -17 -7 -17 -16s8 -16 17 -16c8 0 16 7 16 16s-8 16 -16 16zM275 532c28 0 52 -23 52 -51c0 -29 -24 -52 -52 -52c-29 0 -52 23 -52 52c0 28 23 51 52 51zM264 494
c-9 0 -17 -7 -17 -16s8 -16 17 -16c8 0 16 7 16 16s-8 16 -16 16z" />
    <glyph glyph-name="ring" unicode="&#x2da;" horiz-adv-x="238" 
d="M127 606c49 0 89 -40 89 -89s-40 -88 -89 -88s-89 39 -89 88s40 89 89 89zM147 574c22 -9 32 -34 32 -56c0 -24 -9 -54 -41 -63c39 2 55 35 55 63c0 24 -16 52 -46 56zM80 575c-18 -11 -27 -33 -27 -57c0 -28 13 -58 40 -67c-19 16 -26 43 -26 67c0 22 4 45 13 57z
M127 567c-28 0 -37 -29 -37 -50s9 -50 37 -50s37 29 37 50s-9 50 -37 50z" />
    <glyph glyph-name="emdash" unicode="&#x2014;" horiz-adv-x="848" 
d="M62 249c-17 0 -24 6 -24 25v47c0 19 7 25 24 25h733c17 0 24 -6 24 -25v-47c0 -19 -7 -25 -24 -25h-733zM74 276h693c7 0 9 1 9 12v2c0 11 -2 13 -9 13h-693c-7 0 -9 -2 -9 -13v-2c0 -11 2 -12 9 -12z" />
    <glyph glyph-name="AE" unicode="&#xc6;" horiz-adv-x="1035" 
d="M496 441l-146 -175c-9 -9 -6 -14 4 -14h145c17 0 18 2 18 19v171c0 13 -9 9 -21 -1zM913 520l-16 44h-64c24 -8 59 -26 80 -44zM544 132c0 -39 -2 -81 -19 -102h72c-17 20 -18 53 -18 102v428h-54c17 -21 19 -63 19 -102v-326zM857 22h61l23 51c-20 -19 -57 -41 -84 -51z
M517 189c0 19 -4 23 -23 23h-173c-12 0 -17 -2 -24 -11l-58 -68c-81 -95 -81 -111 -28 -114c20 -1 20 -25 1 -25c-24 0 -63 6 -88 6c-24 0 -54 -6 -71 -6c-19 0 -21 24 -1 25c66 3 75 24 151 114l295 351c31 37 5 88 -50 90c-20 1 -19 25 0 25h470c17 0 25 -3 28 -23
c6 -46 13 -71 33 -145c3 -10 -11 -18 -18 -7c-52 88 -129 136 -295 136c-38 0 -44 -9 -44 -28v-176c0 -9 3 -12 13 -12h123c70 0 113 13 116 69c1 20 25 19 25 0c0 -23 -6 -56 -6 -87c0 -41 6 -79 6 -93c0 -19 -24 -20 -25 0c-3 57 -31 70 -116 70h-121
c-12 0 -15 -4 -15 -15v-166c0 -72 20 -92 69 -92c196 0 223 56 302 139c10 11 26 4 19 -14l-54 -141c-9 -23 -11 -24 -38 -23c0 0 -285 9 -350 9c-49 0 -98 -9 -122 -9c-19 0 -20 24 0 25c56 2 69 46 69 116v57z" />
    <glyph glyph-name="ordfeminine" unicode="&#xaa;" horiz-adv-x="281" 
d="M48 45c68 28 126 83 150 154c-21 -12 -43 -23 -63 -23c-54 0 -97 42 -97 97c0 64 51 106 112 106c66 0 109 -49 109 -124c0 -118 -93 -219 -209 -219c-7 0 -8 6 -2 9zM87 286c0 -54 32 -89 71 -89c36 0 58 29 58 79c0 55 -31 87 -69 87c-43 0 -60 -36 -60 -77zM50 273
c0 -34 23 -67 55 -81c-24 21 -42 46 -42 94c0 17 7 46 11 55c-13 -13 -24 -45 -24 -68zM228 276c0 -69 -47 -163 -112 -206c67 22 120 116 120 183c0 20 -5 41 -13 59c3 -9 5 -23 5 -36z" />
    <glyph glyph-name="Oslash" unicode="&#xd8;" horiz-adv-x="706" 
d="M538 455l-333 -353c40 -56 99 -92 171 -92c137 0 211 128 203 285c-3 59 -17 114 -41 160zM183 138l332 353c-40 55 -98 90 -168 90c-137 0 -211 -130 -204 -286c3 -58 17 -112 40 -157zM119 71c-52 58 -81 136 -81 224c0 178 119 323 323 323c86 0 156 -25 209 -68
l52 55c9 10 14 13 24 13h24c8 0 14 -7 8 -13c0 0 -77 -83 -78 -83c55 -58 85 -138 85 -227c0 -178 -120 -323 -324 -323c-87 0 -159 26 -212 70c1 1 -54 -57 -54 -57c-7 -7 -14 -13 -23 -13h-24c-10 0 -15 6 -9 13zM187 40c-63 73 -91 175 -91 255c0 92 16 149 47 215
c-47 -49 -81 -131 -81 -215c0 -72 17 -170 125 -255zM495 544c59 -52 107 -158 107 -249c0 -101 -15 -155 -51 -213c54 39 85 112 85 213c0 100 -45 209 -141 249z" />
    <glyph glyph-name="OE" unicode="&#x152;" horiz-adv-x="1012" 
d="M833 22h62l23 51c-20 -19 -57 -41 -85 -51zM889 520l-15 44h-64c24 -8 59 -26 79 -44zM487 523c-37 36 -85 58 -140 58c-137 0 -211 -130 -204 -286c8 -157 96 -285 233 -285c35 0 67 8 94 24c18 20 24 54 24 98v326c0 25 -2 47 -7 65zM480 599h415c17 0 24 -3 27 -23
c6 -46 14 -71 34 -145c3 -10 -11 -18 -18 -7c-52 88 -129 136 -295 136c-38 0 -44 -9 -44 -28v-176c0 -9 3 -12 13 -12h123c70 0 113 13 115 69c1 20 26 19 26 0c0 -23 -7 -56 -7 -87c0 -41 7 -79 7 -93c0 -19 -25 -20 -26 0c-2 57 -31 70 -115 70h-121
c-12 0 -15 -4 -15 -15v-166c0 -72 20 -92 69 -92c195 0 222 56 302 139c10 11 26 4 19 -14l-55 -141c-9 -23 -10 -24 -38 -23c0 0 -284 9 -350 9c-16 0 -32 -1 -47 -3c-41 -16 -87 -25 -138 -25c-204 0 -323 145 -323 323s119 323 323 323c43 0 83 -7 119 -19zM187 40
c-63 73 -91 175 -91 255c0 92 16 149 47 215c-47 -49 -81 -131 -81 -215c0 -72 17 -170 125 -255zM520 132c0 -39 -1 -81 -18 -102h72c-17 20 -18 53 -18 102v428h-54c17 -21 18 -63 18 -102v-326z" />
    <glyph glyph-name="ordmasculine" unicode="&#xba;" horiz-adv-x="271" 
d="M195 215c18 11 26 35 26 62c0 32 -14 57 -32 70c12 -15 18 -40 18 -70c0 -27 -6 -51 -12 -62zM49 277c0 -26 16 -57 31 -70c-9 17 -18 46 -18 70c0 21 5 48 13 64c-9 -7 -26 -32 -26 -64zM143 379c64 0 106 -45 106 -102s-43 -103 -106 -103c-62 0 -105 46 -105 103
s42 102 105 102zM143 364c-34 0 -52 -39 -52 -87s20 -87 52 -87c34 0 52 39 52 87s-18 87 -52 87z" />
    <glyph glyph-name="ae" unicode="&#xe6;" horiz-adv-x="635" 
d="M371 235h131c12 0 16 4 16 14c0 37 -17 105 -69 105c-45 0 -76 -43 -88 -104c-1 -11 1 -15 10 -15zM522 321c10 -25 16 -49 17 -87c6 1 35 1 35 1c0 42 -39 81 -52 86zM75 277c0 -10 5 -16 12 -16c21 0 22 39 25 69c-21 -14 -37 -36 -37 -53zM296 59
c-38 -49 -94 -79 -161 -79c-62 0 -97 32 -97 98c0 93 132 142 219 155v38c0 48 -9 78 -39 78c-80 0 -44 -126 -124 -126c-18 0 -45 8 -45 46c0 85 113 116 177 116c45 0 82 -9 104 -39c31 24 71 39 119 39c112 0 165 -102 165 -156c0 -26 -1 -27 -25 -27h-219
c-13 0 -16 -4 -16 -20c0 -96 43 -149 122 -149c47 0 73 15 107 46c16 15 32 -5 20 -18c-30 -35 -94 -82 -154 -82c-66 0 -121 31 -153 80zM125 105c0 -31 25 -54 63 -54c52 0 69 25 69 86v64c-79 -18 -132 -45 -132 -96zM63 73c0 -51 40 -76 94 -65c-45 10 -81 61 -79 105
c-7 -8 -15 -22 -15 -40zM337 321c-34 -24 -54 -90 -54 -139c0 -51 21 -102 57 -140c-18 31 -29 101 -29 140c0 56 8 105 26 139z" />
    <glyph glyph-name="dotlessi" unicode="&#x131;" horiz-adv-x="308" 
d="M113 236c0 88 -7 111 -60 113c-20 1 -19 26 0 25c46 -2 104 -1 141 3c13 1 17 -7 17 -21v-224c0 -84 8 -114 60 -116c20 -1 19 -25 0 -25c-13 0 -54 9 -113 9c-48 0 -81 -9 -105 -9c-19 0 -20 24 0 25c53 2 60 28 60 116v104zM168 338h-46c16 -21 18 -63 18 -102v-104
c0 -39 -2 -81 -18 -102h64c-17 20 -18 53 -18 102v206z" />
    <glyph glyph-name="oslash" unicode="&#xf8;" horiz-adv-x="440" 
d="M315 246c0 1 -156 -185 -156 -185c17 -32 42 -51 69 -51c55 0 94 76 94 172c0 23 -2 44 -7 64zM143 108l157 187c-17 36 -42 59 -72 59c-60 0 -94 -77 -94 -172c0 -26 3 -51 9 -74zM87 42c-31 37 -49 86 -49 140c0 111 69 203 190 203c45 0 84 -15 115 -39l22 26
c8 9 14 13 24 13h23c8 0 14 -7 9 -13l-48 -57c29 -36 45 -83 45 -133c0 -112 -77 -203 -190 -203c-42 0 -79 13 -109 35l-24 -29c-7 -7 -14 -13 -23 -13h-24c-10 0 -15 6 -9 13zM117 321c-35 -24 -55 -90 -55 -139c0 -51 22 -102 57 -140c-18 31 -33 101 -33 140
c0 56 13 105 31 139zM312 316c23 -21 35 -80 35 -134c0 -45 -18 -109 -31 -134c28 25 57 82 57 134c0 68 -20 108 -61 134z" />
    <glyph glyph-name="oe" unicode="&#x153;" horiz-adv-x="701" 
d="M436 235h132c12 0 15 4 15 14c0 37 -16 105 -69 105c-45 0 -75 -43 -87 -104c-2 -11 1 -15 9 -15zM588 321c9 -25 15 -49 17 -87c6 1 35 1 35 1c0 42 -39 81 -52 86zM117 321c-35 -24 -55 -90 -55 -139c0 -51 22 -102 57 -140c-18 31 -33 101 -33 140c0 56 13 105 31 139
zM372 45c-34 -41 -84 -66 -144 -66c-112 0 -190 91 -190 203c0 111 69 203 190 203c59 0 108 -25 142 -65c32 40 81 65 144 65c113 0 165 -102 165 -156c0 -26 -1 -27 -25 -27h-218c-13 0 -16 -4 -16 -20c0 -96 42 -149 122 -149c47 0 73 15 106 46c17 15 32 -5 21 -18
c-30 -35 -94 -82 -155 -82c-59 0 -109 25 -142 66zM228 354c-60 0 -94 -77 -94 -172c0 -96 39 -172 94 -172s94 76 94 172c0 95 -39 172 -94 172zM403 321c-35 -24 -55 -90 -55 -139c0 -51 22 -102 57 -140c-18 31 -33 101 -33 140c0 56 13 105 31 139z" />
    <glyph glyph-name="germandbls" unicode="&#xdf;" horiz-adv-x="534" 
d="M273 30h21l-21 28v-28zM295 356c0 -126 151 -190 167 -300c4 12 9 23 9 32c0 81 -142 171 -176 268zM168 449c0 38 1 70 7 115c-29 -46 -35 -65 -35 -115v-317c0 -39 -2 -81 -18 -102h64c-17 20 -18 53 -18 102v317zM337 565c0 37 -22 77 -60 77s-66 -39 -66 -193v-430
c0 -15 -3 -24 -19 -24c-14 0 -36 2 -49 2c-49 0 -66 -6 -90 -6c-19 0 -20 24 0 25c53 2 60 28 60 116v190c0 7 -1 13 -12 13h-53c-27 0 -26 38 0 38h51c12 0 14 4 14 13v63c0 140 99 231 202 231c70 0 120 -46 120 -105c0 -86 -97 -139 -97 -197c0 -75 175 -174 175 -284
c0 -77 -77 -114 -140 -114c-45 0 -69 32 -85 32c-14 0 -17 -8 -22 -22c-4 -12 -20 -11 -21 6c0 14 2 42 1 71c-1 23 -7 51 -9 76c-2 15 17 19 21 7c30 -82 77 -138 125 -138c30 0 54 16 54 47c0 72 -166 167 -166 291c0 75 66 128 66 215zM326 644c14 -11 35 -48 35 -79
c0 -36 -14 -78 -34 -110c36 37 60 80 60 113c0 34 -29 66 -61 76z" />
    <glyph glyph-name="trademark" unicode="&#x2122;" horiz-adv-x="234" 
d="M173 344c4 -12 6 -29 14 -25c8 3 -5 22 -14 25zM77 344c-17 -12 -27 -45 -27 -70s11 -51 29 -69c-10 15 -18 50 -18 69c0 29 7 53 16 70zM133 173v-28h-9v28c-51 4 -86 48 -86 101c0 54 31 98 86 101v28h9v-27c56 0 80 -29 80 -56c0 -16 -8 -24 -22 -24
c-36 0 -22 64 -58 64v-159c4 0 9 -1 14 -1c23 0 36 7 53 23c8 8 16 -3 10 -9c-15 -18 -47 -41 -77 -41zM124 203v156c-25 -6 -38 -42 -38 -85c0 -37 13 -62 38 -71z" />
    <glyph glyph-name="divide" unicode="&#xf7;" horiz-adv-x="267" 
d="M220 475c-52 -7 -106 -58 -124 -124c20 15 44 23 66 23c51 0 83 -46 83 -95c0 -56 -38 -105 -102 -105s-105 63 -105 125c0 87 76 188 180 188c10 0 10 -11 2 -12zM50 299c0 -26 9 -57 23 -77c-5 12 -11 40 -11 61c0 77 43 141 70 166c-39 -25 -82 -88 -82 -150zM83 283
c0 -53 28 -94 61 -94c31 0 54 29 54 75c0 59 -26 90 -61 90c-37 0 -54 -30 -54 -71zM203 222c14 14 18 33 18 56c0 24 -15 58 -35 65c17 -21 24 -47 24 -79c0 -14 -2 -28 -7 -42z" />
    <glyph glyph-name="degree" unicode="&#xb0;" horiz-adv-x="267" 
d="M172 350c50 -17 73 -47 73 -90c0 -53 -51 -89 -105 -89c-56 0 -102 26 -102 79c0 37 23 65 54 79c-27 19 -38 46 -38 70c0 40 32 83 86 83c48 0 81 -28 81 -67c0 -29 -22 -54 -49 -65zM139 467c-28 0 -55 -17 -55 -51c0 -30 48 -51 72 -59c27 16 38 38 38 60
c0 25 -18 50 -55 50zM210 245c0 -12 -2 -21 -8 -33c15 11 23 31 23 48c0 82 -114 62 -158 132c14 -92 143 -54 143 -147zM67 257c0 -46 32 -70 73 -70c35 0 58 23 58 58c0 46 -42 58 -93 77c-16 -7 -38 -29 -38 -65z" />
    <glyph glyph-name="Aacute" unicode="&#xc1;" horiz-adv-x="712" 
d="M352 494l150 -389c5 -14 17 -43 26 -66h43c-8 19 -28 72 -31 80l-165 426zM325 436l-82 -178c-5 -10 -2 -15 8 -15h148c18 0 18 2 11 20l-68 174c-5 13 -12 10 -17 -1zM182 124c-43 -95 -39 -112 17 -114c20 -1 19 -25 0 -25c-24 0 -59 6 -83 6s-55 -6 -72 -6
c-19 0 -20 24 0 25c63 2 65 24 106 114l161 351c5 11 6 22 3 31c-4 11 -11 16 -13 26c-5 15 8 20 23 35c14 14 26 31 35 43c9 14 26 9 32 -3l192 -486c38 -96 42 -111 102 -113c19 -1 19 -25 0 -25c-25 0 -74 8 -122 8c-59 0 -108 -8 -122 -8c-19 0 -20 24 0 25
c55 2 55 26 23 113l-22 60c-7 19 -12 22 -31 22h-179c-12 0 -15 -2 -19 -11zM351 643l65 76c49 58 70 79 99 79c20 0 41 -10 41 -32c0 -20 -29 -42 -80 -77l-68 -46h-57zM404 669l92 74c16 13 -3 32 -23 11l-81 -85h12z" />
    <glyph glyph-name="Acircumflex" unicode="&#xc2;" horiz-adv-x="712" 
d="M352 494l150 -389c5 -14 17 -43 26 -66h43c-8 19 -28 72 -31 80l-165 426zM325 436l-82 -178c-5 -10 -2 -15 8 -15h148c18 0 18 2 11 20l-68 174c-5 13 -12 10 -17 -1zM182 124c-43 -95 -39 -112 17 -114c20 -1 19 -25 0 -25c-24 0 -59 6 -83 6s-55 -6 -72 -6
c-19 0 -20 24 0 25c63 2 65 24 106 114l161 351c5 11 6 22 3 31c-4 11 -11 16 -13 26c-5 15 8 20 23 35c14 14 26 31 35 43c9 14 26 9 32 -3l192 -486c38 -96 42 -111 102 -113c19 -1 19 -25 0 -25c-25 0 -74 8 -122 8c-59 0 -108 -8 -122 -8c-19 0 -20 24 0 25
c55 2 55 26 23 113l-22 60c-7 19 -12 22 -31 22h-179c-12 0 -15 -2 -19 -11zM375 770c44 0 47 -1 57 -15l64 -89c13 -19 8 -24 -31 -24c-27 0 -32 2 -41 11l-77 75l-76 -76c-8 -8 -13 -10 -29 -10c-15 0 -19 5 -12 16l80 97c11 16 13 15 65 15zM456 668l-48 64h-31l64 -64
h15z" />
    <glyph glyph-name="Adieresis" unicode="&#xc4;" horiz-adv-x="712" 
d="M352 494l150 -389c5 -14 17 -43 26 -66h43c-8 19 -28 72 -31 80l-165 426zM325 436l-82 -178c-5 -10 -2 -15 8 -15h148c18 0 18 2 11 20l-68 174c-5 13 -12 10 -17 -1zM182 124c-43 -95 -39 -112 17 -114c20 -1 19 -25 0 -25c-24 0 -59 6 -83 6s-55 -6 -72 -6
c-19 0 -20 24 0 25c63 2 65 24 106 114l161 351c5 11 6 22 3 31c-4 11 -11 16 -13 26c-5 15 8 20 23 35c14 14 26 31 35 43c9 14 26 9 32 -3l192 -486c38 -96 42 -111 102 -113c19 -1 19 -25 0 -25c-25 0 -74 8 -122 8c-59 0 -108 -8 -122 -8c-19 0 -20 24 0 25
c55 2 55 26 23 113l-22 60c-7 19 -12 22 -31 22h-179c-12 0 -15 -2 -19 -11zM284 746c29 0 52 -23 52 -52c0 -28 -23 -52 -52 -52c-28 0 -52 24 -52 52c0 29 24 52 52 52zM273 708c-9 0 -16 -8 -16 -17c0 -8 7 -16 16 -16s17 8 17 16c0 9 -8 17 -17 17zM469 746
c29 0 52 -23 52 -52c0 -28 -23 -52 -52 -52c-28 0 -52 24 -52 52c0 29 24 52 52 52zM458 708c-9 0 -16 -8 -16 -17c0 -8 7 -16 16 -16s17 8 17 16c0 9 -8 17 -17 17z" />
    <glyph glyph-name="Agrave" unicode="&#xc0;" horiz-adv-x="712" 
d="M352 494l150 -389c5 -14 17 -43 26 -66h43c-8 19 -28 72 -31 80l-165 426zM325 436l-82 -178c-5 -10 -2 -15 8 -15h148c18 0 18 2 11 20l-68 174c-5 13 -12 10 -17 -1zM182 124c-43 -95 -39 -112 17 -114c20 -1 19 -25 0 -25c-24 0 -59 6 -83 6s-55 -6 -72 -6
c-19 0 -20 24 0 25c63 2 65 24 106 114l161 351c5 11 6 22 3 31c-4 11 -11 16 -13 26c-5 15 8 20 23 35c14 14 26 31 35 43c9 14 26 9 32 -3l192 -486c38 -96 42 -111 102 -113c19 -1 19 -25 0 -25c-25 0 -74 8 -122 8c-59 0 -108 -8 -122 -8c-19 0 -20 24 0 25
c55 2 55 26 23 113l-22 60c-7 19 -12 22 -31 22h-179c-12 0 -15 -2 -19 -11zM374 643h-57l-68 46c-51 35 -80 57 -80 77c0 22 21 32 41 32c29 0 50 -21 99 -79zM309 669h11l-88 85c-21 21 -40 1 -24 -11z" />
    <glyph glyph-name="Aring" unicode="&#xc5;" horiz-adv-x="712" 
d="M352 494l150 -389c5 -14 17 -43 26 -66h43c-8 19 -28 72 -31 80l-165 426zM325 436l-82 -178c-5 -10 -2 -15 8 -15h148c18 0 18 2 11 20l-68 174c-5 13 -12 10 -17 -1zM182 124c-43 -95 -39 -112 17 -114c20 -1 19 -25 0 -25c-24 0 -59 6 -83 6s-55 -6 -72 -6
c-19 0 -20 24 0 25c63 2 65 24 106 114l161 351c5 11 6 22 3 31c-4 11 -11 16 -13 26c-5 15 8 20 23 35c14 14 26 31 35 43c9 14 26 9 32 -3l192 -486c38 -96 42 -111 102 -113c19 -1 19 -25 0 -25c-25 0 -74 8 -122 8c-59 0 -108 -8 -122 -8c-19 0 -20 24 0 25
c55 2 55 26 23 113l-22 60c-7 19 -12 22 -31 22h-179c-12 0 -15 -2 -19 -11zM381 819c49 0 89 -39 89 -89c0 -49 -40 -88 -89 -88s-89 39 -89 88c0 50 40 89 89 89zM401 787c23 -8 32 -33 32 -56s-9 -53 -41 -62c39 2 55 35 55 62c0 24 -16 53 -46 56zM334 788
c-18 -11 -27 -33 -27 -57c0 -27 13 -58 40 -66c-19 15 -26 43 -26 66s4 45 13 57zM381 780c-27 0 -37 -28 -37 -50c0 -20 10 -50 37 -50c28 0 37 30 37 50c0 22 -9 50 -37 50z" />
    <glyph glyph-name="Atilde" unicode="&#xc3;" horiz-adv-x="712" 
d="M460 686c-53 -70 -127 57 -182 11c37 83 103 -38 182 -11zM508 760h-25c-4 -9 -7 -21 -14 -28c-14 -15 -30 -16 -46 -12c-59 15 -68 53 -126 35c-45 -13 -57 -73 -65 -113h26c9 21 14 29 23 35c14 10 28 9 42 3c52 -21 72 -53 123 -33c35 13 56 83 62 113zM182 124l31 68
c4 9 7 11 19 11h179c19 0 24 -3 31 -22l22 -60c32 -87 32 -111 -23 -113c-20 -1 -19 -25 0 -25c14 0 63 8 122 8c48 0 97 -8 122 -8c19 0 19 24 0 25c-60 2 -64 17 -102 113l-192 486c-6 12 -23 17 -32 3c-9 -12 -21 -29 -35 -43c-15 -15 -28 -20 -23 -35
c2 -10 9 -15 13 -26c3 -9 2 -20 -3 -31l-161 -351c-41 -90 -43 -112 -106 -114c-20 -1 -19 -25 0 -25c17 0 48 6 72 6s59 -6 83 -6c19 0 20 24 0 25c-56 2 -60 19 -17 114zM243 258l82 178c5 11 12 14 17 1l68 -174c7 -18 7 -20 -11 -20h-148c-10 0 -13 5 -8 15zM502 105
l-150 389l23 51l165 -426c3 -8 23 -61 31 -80h-43c-9 23 -21 52 -26 66z" />
    <glyph glyph-name="Ccedilla" unicode="&#xc7;" horiz-adv-x="653" 
d="M554 481v61c-10 -10 -29 -7 -54 2c23 -16 39 -40 54 -63zM187 40c-63 73 -91 175 -91 255c0 92 16 149 47 215c-47 -49 -81 -131 -81 -215c0 -72 17 -170 125 -255zM333 -97c52 1 100 -27 100 -85c0 -10 -4 -25 -7 -31c10 9 17 30 17 51c0 46 -53 80 -104 76zM366 -28
l-11 -28c-1 -5 -1 -8 5 -8c44 0 111 -30 111 -98c0 -58 -51 -112 -111 -112c-26 0 -50 10 -60 19c-9 7 0 21 10 15c13 -8 34 -13 50 -13c36 0 53 36 53 71c0 53 -49 71 -88 67c-12 -1 -13 7 -10 14l30 73c-194 8 -307 149 -307 323c0 178 119 323 323 323
c101 0 142 -42 171 -42c17 0 27 4 33 13c11 15 31 9 30 -11c-5 -61 6 -139 8 -205c1 -21 -23 -24 -27 -5c-22 118 -99 213 -229 213c-137 0 -211 -130 -204 -286c8 -157 96 -285 233 -285c93 0 156 24 220 81c12 11 25 -1 16 -13c-47 -62 -138 -104 -246 -106z" />
    <glyph glyph-name="Eacute" unicode="&#xc9;" horiz-adv-x="640" 
d="M518 520l-16 44h-64c24 -8 59 -26 80 -44zM149 132c0 -39 -2 -81 -18 -102h71c-17 20 -18 53 -18 102v428h-53c16 -21 18 -63 18 -102v-326zM122 458c0 70 -12 114 -69 116c-20 1 -19 25 0 25h470c17 0 25 -3 28 -23c6 -46 13 -71 33 -145c3 -10 -11 -18 -18 -7
c-52 88 -129 136 -295 136c-38 0 -44 -9 -44 -28v-176c0 -9 3 -12 13 -12h123c70 0 113 13 116 69c1 20 25 19 25 0c0 -23 -6 -56 -6 -87c0 -41 6 -79 6 -93c0 -19 -24 -20 -25 0c-3 57 -31 70 -116 70h-121c-12 0 -15 -4 -15 -15v-166c0 -72 20 -92 69 -92
c196 0 223 56 302 139c10 11 26 4 19 -14l-54 -141c-9 -23 -11 -24 -38 -23c0 0 -285 9 -350 9c-49 0 -98 -9 -122 -9c-19 0 -20 24 0 25c56 2 69 46 69 116v326zM462 22h61l23 51c-20 -19 -57 -41 -84 -51zM280 643l65 76c49 58 70 79 99 79c20 0 41 -10 41 -32
c0 -20 -29 -42 -80 -77l-68 -46h-57zM333 669l92 74c16 13 -3 33 -23 11l-80 -85h11z" />
    <glyph glyph-name="Ecircumflex" unicode="&#xca;" horiz-adv-x="640" 
d="M518 520l-16 44h-64c24 -8 59 -26 80 -44zM149 132c0 -39 -2 -81 -18 -102h71c-17 20 -18 53 -18 102v428h-53c16 -21 18 -63 18 -102v-326zM122 458c0 70 -12 114 -69 116c-20 1 -19 25 0 25h470c17 0 25 -3 28 -23c6 -46 13 -71 33 -145c3 -10 -11 -18 -18 -7
c-52 88 -129 136 -295 136c-38 0 -44 -9 -44 -28v-176c0 -9 3 -12 13 -12h123c70 0 113 13 116 69c1 20 25 19 25 0c0 -23 -6 -56 -6 -87c0 -41 6 -79 6 -93c0 -19 -24 -20 -25 0c-3 57 -31 70 -116 70h-121c-12 0 -15 -4 -15 -15v-166c0 -72 20 -92 69 -92
c196 0 223 56 302 139c10 11 26 4 19 -14l-54 -141c-9 -23 -11 -24 -38 -23c0 0 -285 9 -350 9c-49 0 -98 -9 -122 -9c-19 0 -20 24 0 25c56 2 69 46 69 116v326zM462 22h61l23 51c-20 -19 -57 -41 -84 -51zM306 770c44 0 47 -1 57 -15l64 -89c13 -19 8 -24 -31 -24
c-27 0 -32 2 -42 11l-76 75l-77 -76c-8 -7 -13 -10 -28 -10s-19 5 -12 16l80 97c11 16 13 15 65 15zM387 668l-48 64h-31l64 -64h15z" />
    <glyph glyph-name="Edieresis" unicode="&#xcb;" horiz-adv-x="640" 
d="M518 520l-16 44h-64c24 -8 59 -26 80 -44zM149 132c0 -39 -2 -81 -18 -102h71c-17 20 -18 53 -18 102v428h-53c16 -21 18 -63 18 -102v-326zM122 458c0 70 -12 114 -69 116c-20 1 -19 25 0 25h470c17 0 25 -3 28 -23c6 -46 13 -71 33 -145c3 -10 -11 -18 -18 -7
c-52 88 -129 136 -295 136c-38 0 -44 -9 -44 -28v-176c0 -9 3 -12 13 -12h123c70 0 113 13 116 69c1 20 25 19 25 0c0 -23 -6 -56 -6 -87c0 -41 6 -79 6 -93c0 -19 -24 -20 -25 0c-3 57 -31 70 -116 70h-121c-12 0 -15 -4 -15 -15v-166c0 -72 20 -92 69 -92
c196 0 223 56 302 139c10 11 26 4 19 -14l-54 -141c-9 -23 -11 -24 -38 -23c0 0 -285 9 -350 9c-49 0 -98 -9 -122 -9c-19 0 -20 24 0 25c56 2 69 46 69 116v326zM462 22h61l23 51c-20 -19 -57 -41 -84 -51zM210 746c29 0 52 -23 52 -52c0 -28 -23 -52 -52 -52
c-28 0 -52 24 -52 52c0 29 24 52 52 52zM199 708c-9 0 -17 -8 -17 -17c0 -8 8 -16 17 -16c8 0 16 8 16 16c0 9 -8 17 -16 17zM395 746c29 0 52 -23 52 -52c0 -28 -23 -52 -52 -52s-52 24 -52 52c0 29 23 52 52 52zM384 708c-9 0 -17 -8 -17 -17c0 -8 8 -16 17 -16
c8 0 16 8 16 16c0 9 -8 17 -16 17z" />
    <glyph glyph-name="Egrave" unicode="&#xc8;" horiz-adv-x="640" 
d="M518 520l-16 44h-64c24 -8 59 -26 80 -44zM149 132c0 -39 -2 -81 -18 -102h71c-17 20 -18 53 -18 102v428h-53c16 -21 18 -63 18 -102v-326zM122 458c0 70 -12 114 -69 116c-20 1 -19 25 0 25h470c17 0 25 -3 28 -23c6 -46 13 -71 33 -145c3 -10 -11 -18 -18 -7
c-52 88 -129 136 -295 136c-38 0 -44 -9 -44 -28v-176c0 -9 3 -12 13 -12h123c70 0 113 13 116 69c1 20 25 19 25 0c0 -23 -6 -56 -6 -87c0 -41 6 -79 6 -93c0 -19 -24 -20 -25 0c-3 57 -31 70 -116 70h-121c-12 0 -15 -4 -15 -15v-166c0 -72 20 -92 69 -92
c196 0 223 56 302 139c10 11 26 4 19 -14l-54 -141c-9 -23 -11 -24 -38 -23c0 0 -285 9 -350 9c-49 0 -98 -9 -122 -9c-19 0 -20 24 0 25c56 2 69 46 69 116v326zM462 22h61l23 51c-20 -19 -57 -41 -84 -51zM338 643h-57l-68 46c-51 35 -80 57 -80 77c0 22 21 32 41 32
c29 0 50 -21 99 -79zM272 669h11l-88 85c-21 20 -39 1 -23 -11z" />
    <glyph glyph-name="Iacute" unicode="&#xcd;" horiz-adv-x="334" 
d="M122 458c0 70 -12 114 -69 116c-20 1 -19 25 0 25c24 0 73 -9 122 -9c58 0 108 9 121 9c19 0 20 -24 0 -25c-55 -2 -69 -31 -69 -116v-326c0 -84 13 -114 69 -116c20 -1 19 -25 0 -25c-13 0 -63 9 -121 9c-49 0 -98 -9 -122 -9c-19 0 -20 24 0 25c56 2 69 46 69 116v326z
M149 132c0 -39 -2 -81 -18 -102h71c-17 20 -18 53 -18 102v326c0 49 1 82 18 102h-71c16 -21 18 -63 18 -102v-326zM156 643l64 76c49 59 70 79 100 79c20 0 40 -10 40 -32c0 -20 -28 -42 -79 -77l-68 -46h-57zM208 669l93 74c16 12 -4 33 -24 11l-80 -85h11z" />
    <glyph glyph-name="Icircumflex" unicode="&#xce;" horiz-adv-x="334" 
d="M122 458c0 70 -12 114 -69 116c-20 1 -19 25 0 25c24 0 73 -9 122 -9c58 0 108 9 121 9c19 0 20 -24 0 -25c-55 -2 -69 -31 -69 -116v-326c0 -84 13 -114 69 -116c20 -1 19 -25 0 -25c-13 0 -63 9 -121 9c-49 0 -98 -9 -122 -9c-19 0 -20 24 0 25c56 2 69 46 69 116v326z
M149 132c0 -39 -2 -81 -18 -102h71c-17 20 -18 53 -18 102v326c0 49 1 82 18 102h-71c16 -21 18 -63 18 -102v-326zM188 770c44 0 47 -1 57 -15l64 -89c13 -19 8 -24 -31 -24c-26 0 -32 2 -41 11l-76 75l-77 -76c-8 -8 -13 -10 -29 -10c-14 0 -19 5 -12 16l81 97
c10 16 13 15 64 15zM270 668l-49 64h-31l64 -64h16z" />
    <glyph glyph-name="Idieresis" unicode="&#xcf;" horiz-adv-x="334" 
d="M122 458c0 70 -12 114 -69 116c-20 1 -19 25 0 25c24 0 73 -9 122 -9c58 0 108 9 121 9c19 0 20 -24 0 -25c-55 -2 -69 -31 -69 -116v-326c0 -84 13 -114 69 -116c20 -1 19 -25 0 -25c-13 0 -63 9 -121 9c-49 0 -98 -9 -122 -9c-19 0 -20 24 0 25c56 2 69 46 69 116v326z
M149 132c0 -39 -2 -81 -18 -102h71c-17 20 -18 53 -18 102v326c0 49 1 82 18 102h-71c16 -21 18 -63 18 -102v-326zM82 746c29 0 52 -23 52 -52c0 -28 -23 -52 -52 -52c-28 0 -52 24 -52 52c0 29 24 52 52 52zM71 708c-9 0 -17 -8 -17 -17c0 -8 8 -16 17 -16s16 8 16 16
c0 9 -7 17 -16 17zM267 746c29 0 52 -23 52 -52c0 -28 -23 -52 -52 -52c-28 0 -52 24 -52 52c0 29 24 52 52 52zM256 708c-9 0 -17 -8 -17 -17c0 -8 8 -16 17 -16c8 0 16 8 16 16c0 9 -8 17 -16 17z" />
    <glyph glyph-name="Igrave" unicode="&#xcc;" horiz-adv-x="334" 
d="M122 458c0 70 -12 114 -69 116c-20 1 -19 25 0 25c24 0 73 -9 122 -9c58 0 108 9 121 9c19 0 20 -24 0 -25c-55 -2 -69 -31 -69 -116v-326c0 -84 13 -114 69 -116c20 -1 19 -25 0 -25c-13 0 -63 9 -121 9c-49 0 -98 -9 -122 -9c-19 0 -20 24 0 25c56 2 69 46 69 116v326z
M149 132c0 -39 -2 -81 -18 -102h71c-17 20 -18 53 -18 102v326c0 49 1 82 18 102h-71c16 -21 18 -63 18 -102v-326zM213 643h-57l-68 46c-51 35 -79 57 -79 77c0 22 20 32 40 32c30 0 51 -20 100 -79zM148 669h11l-88 85c-21 21 -40 1 -23 -11z" />
    <glyph glyph-name="Ntilde" unicode="&#xd1;" horiz-adv-x="779" 
d="M486 686c-53 -70 -127 57 -182 11c37 83 103 -38 182 -11zM534 760h-25c-4 -9 -7 -21 -14 -28c-14 -15 -30 -16 -46 -12c-59 15 -68 53 -126 35c-45 -13 -57 -73 -65 -113h25c10 21 15 29 24 35c14 10 27 9 42 3c52 -21 72 -53 123 -33c35 13 56 83 62 113zM632 83v-49
l-508 526h47zM673 0v458c0 85 13 113 69 116c20 1 19 25 0 25c-13 0 -51 -6 -92 -6c-31 0 -64 6 -87 6c-19 0 -20 -24 0 -25c56 -3 69 -46 69 -116v-271c0 -26 -11 -29 -25 -14l-397 411c-15 16 -21 17 -38 14c-16 -2 -37 -3 -52 -3c-21 0 -47 4 -67 4c-19 0 -20 -24 0 -25
c57 -2 69 -46 69 -116v-326c0 -70 -13 -114 -69 -116c-20 -1 -19 -25 0 -25c23 0 56 6 87 6c41 0 79 -6 92 -6c20 0 20 24 0 25c-56 2 -69 32 -69 116v326c0 10 8 13 17 4l436 -452c20 -21 26 -23 43 -23c10 0 14 3 14 13z" />
    <glyph glyph-name="Oacute" unicode="&#xd3;" horiz-adv-x="706" 
d="M361 618c204 0 324 -145 324 -323s-120 -323 -324 -323s-323 145 -323 323s119 323 323 323zM347 581c-137 0 -211 -130 -204 -286c8 -157 96 -285 233 -285s211 128 203 285c-8 156 -96 286 -232 286zM187 40c-63 73 -91 175 -91 255c0 92 16 149 47 215
c-47 -49 -81 -131 -81 -215c0 -72 17 -170 125 -255zM495 544c59 -52 107 -158 107 -249c0 -101 -15 -155 -51 -213c54 39 85 112 85 213c0 100 -45 209 -141 249zM335 643l65 76c49 58 70 79 100 79c19 0 40 -10 40 -32c0 -20 -27 -43 -79 -77l-69 -46h-57zM388 669l93 74
c16 12 -4 33 -24 11l-80 -85h11z" />
    <glyph glyph-name="Ocircumflex" unicode="&#xd4;" horiz-adv-x="706" 
d="M361 618c204 0 324 -145 324 -323s-120 -323 -324 -323s-323 145 -323 323s119 323 323 323zM347 581c-137 0 -211 -130 -204 -286c8 -157 96 -285 233 -285s211 128 203 285c-8 156 -96 286 -232 286zM187 40c-63 73 -91 175 -91 255c0 92 16 149 47 215
c-47 -49 -81 -131 -81 -215c0 -72 17 -170 125 -255zM495 544c59 -52 107 -158 107 -249c0 -101 -15 -155 -51 -213c54 39 85 112 85 213c0 100 -45 209 -141 249zM382 770c44 0 47 -1 57 -15l64 -89c13 -19 8 -24 -31 -24c-27 0 -32 2 -42 11l-76 75l-77 -76
c-8 -7 -13 -10 -28 -10s-19 5 -12 16l80 97c11 16 13 15 65 15zM463 668l-48 64h-31l64 -64h15z" />
    <glyph glyph-name="Odieresis" unicode="&#xd6;" horiz-adv-x="706" 
d="M361 618c204 0 324 -145 324 -323s-120 -323 -324 -323s-323 145 -323 323s119 323 323 323zM347 581c-137 0 -211 -130 -204 -286c8 -157 96 -285 233 -285s211 128 203 285c-8 156 -96 286 -232 286zM187 40c-63 73 -91 175 -91 255c0 92 16 149 47 215
c-47 -49 -81 -131 -81 -215c0 -72 17 -170 125 -255zM495 544c59 -52 107 -158 107 -249c0 -101 -15 -155 -51 -213c54 39 85 112 85 213c0 100 -45 209 -141 249zM258 746c29 0 52 -23 52 -52c0 -28 -23 -52 -52 -52c-28 0 -51 24 -51 52c0 29 23 52 51 52zM247 708
c-8 0 -16 -8 -16 -17c0 -8 8 -16 16 -16c9 0 17 8 17 16c0 9 -8 17 -17 17zM443 746c29 0 52 -23 52 -52c0 -28 -23 -52 -52 -52c-28 0 -51 24 -51 52c0 29 23 52 51 52zM432 708c-8 0 -16 -8 -16 -17c0 -8 8 -16 16 -16c9 0 17 8 17 16c0 9 -8 17 -17 17z" />
    <glyph glyph-name="Ograve" unicode="&#xd2;" horiz-adv-x="706" 
d="M361 618c204 0 324 -145 324 -323s-120 -323 -324 -323s-323 145 -323 323s119 323 323 323zM347 581c-137 0 -211 -130 -204 -286c8 -157 96 -285 233 -285s211 128 203 285c-8 156 -96 286 -232 286zM187 40c-63 73 -91 175 -91 255c0 92 16 149 47 215
c-47 -49 -81 -131 -81 -215c0 -72 17 -170 125 -255zM495 544c59 -52 107 -158 107 -249c0 -101 -15 -155 -51 -213c54 39 85 112 85 213c0 100 -45 209 -141 249zM400 643h-57l-68 46c-51 35 -80 57 -80 77c0 22 21 32 41 32c29 0 50 -21 99 -79zM334 669h12l-88 85
c-21 21 -40 1 -24 -11z" />
    <glyph glyph-name="Otilde" unicode="&#xd5;" horiz-adv-x="706" 
d="M451 686c-53 -70 -127 57 -181 11c37 83 103 -38 181 -11zM500 760h-25c-5 -9 -7 -21 -14 -28c-14 -15 -31 -16 -47 -12c-59 15 -67 53 -125 35c-45 -13 -57 -73 -65 -113h25c9 21 15 29 23 35c14 10 28 9 43 3c51 -21 71 -52 122 -33c36 14 57 83 63 113zM495 544
c96 -40 141 -149 141 -249c0 -101 -31 -174 -85 -213c36 58 51 112 51 213c0 91 -48 197 -107 249zM187 40c-108 85 -125 183 -125 255c0 84 34 166 81 215c-31 -66 -47 -123 -47 -215c0 -80 28 -182 91 -255zM347 581c136 0 224 -130 232 -286c8 -157 -66 -285 -203 -285
s-225 128 -233 285c-7 156 67 286 204 286zM361 618c-204 0 -323 -145 -323 -323s119 -323 323 -323s324 145 324 323s-120 323 -324 323z" />
    <glyph glyph-name="Uacute" unicode="&#xda;" horiz-adv-x="786" 
d="M184 458c0 49 1 82 18 102h-71c16 -21 18 -63 18 -102v-251c0 -126 70 -166 124 -186c-50 40 -89 76 -89 186v251zM680 215c0 -132 -98 -237 -251 -237c-177 0 -307 41 -307 229v251c0 70 -12 114 -69 116c-20 1 -19 25 0 25c24 0 73 -9 122 -9c58 0 108 9 121 9
c19 0 20 -24 0 -25c-55 -2 -69 -31 -69 -116v-251c0 -119 70 -185 201 -185c143 0 211 88 211 194v242c0 70 -13 113 -69 116c-20 1 -19 25 0 25c23 0 56 -6 87 -6c40 0 79 6 92 6c19 0 20 -24 0 -25c-56 -3 -69 -31 -69 -116v-243zM377 643l65 76c49 58 70 79 99 79
c20 0 41 -10 41 -32c0 -20 -29 -42 -80 -77l-68 -46h-57zM430 669l92 74c16 13 -3 32 -23 11l-81 -85h12z" />
    <glyph glyph-name="Ucircumflex" unicode="&#xdb;" horiz-adv-x="786" 
d="M184 458c0 49 1 82 18 102h-71c16 -21 18 -63 18 -102v-251c0 -126 70 -166 124 -186c-50 40 -89 76 -89 186v251zM680 215c0 -132 -98 -237 -251 -237c-177 0 -307 41 -307 229v251c0 70 -12 114 -69 116c-20 1 -19 25 0 25c24 0 73 -9 122 -9c58 0 108 9 121 9
c19 0 20 -24 0 -25c-55 -2 -69 -31 -69 -116v-251c0 -119 70 -185 201 -185c143 0 211 88 211 194v242c0 70 -13 113 -69 116c-20 1 -19 25 0 25c23 0 56 -6 87 -6c40 0 79 6 92 6c19 0 20 -24 0 -25c-56 -3 -69 -31 -69 -116v-243zM425 771c44 0 47 -1 57 -15l64 -89
c14 -19 8 -24 -31 -24c-27 0 -32 2 -41 11l-76 75l-77 -76c-8 -8 -13 -10 -29 -10c-15 0 -19 5 -12 16l80 96c11 17 13 16 65 16zM506 669l-48 64h-31l64 -64h15z" />
    <glyph glyph-name="Udieresis" unicode="&#xdc;" horiz-adv-x="786" 
d="M184 458c0 49 1 82 18 102h-71c16 -21 18 -63 18 -102v-251c0 -126 70 -166 124 -186c-50 40 -89 76 -89 186v251zM680 215c0 -132 -98 -237 -251 -237c-177 0 -307 41 -307 229v251c0 70 -12 114 -69 116c-20 1 -19 25 0 25c24 0 73 -9 122 -9c58 0 108 9 121 9
c19 0 20 -24 0 -25c-55 -2 -69 -31 -69 -116v-251c0 -119 70 -185 201 -185c143 0 211 88 211 194v242c0 70 -13 113 -69 116c-20 1 -19 25 0 25c23 0 56 -6 87 -6c40 0 79 6 92 6c19 0 20 -24 0 -25c-56 -3 -69 -31 -69 -116v-243zM321 746c28 0 52 -23 52 -52
c0 -28 -24 -52 -52 -52c-29 0 -52 24 -52 52c0 29 23 52 52 52zM309 708c-8 0 -16 -8 -16 -17c0 -8 8 -16 16 -16c9 0 17 8 17 16c0 9 -8 17 -17 17zM506 746c28 0 51 -23 51 -52c0 -28 -23 -52 -51 -52c-29 0 -52 24 -52 52c0 29 23 52 52 52zM494 708c-8 0 -16 -8 -16 -17
c0 -8 8 -16 16 -16c9 0 17 8 17 16c0 9 -8 17 -17 17z" />
    <glyph glyph-name="Ugrave" unicode="&#xd9;" horiz-adv-x="786" 
d="M184 458c0 49 1 82 18 102h-71c16 -21 18 -63 18 -102v-251c0 -126 70 -166 124 -186c-50 40 -89 76 -89 186v251zM680 215c0 -132 -98 -237 -251 -237c-177 0 -307 41 -307 229v251c0 70 -12 114 -69 116c-20 1 -19 25 0 25c24 0 73 -9 122 -9c58 0 108 9 121 9
c19 0 20 -24 0 -25c-55 -2 -69 -31 -69 -116v-251c0 -119 70 -185 201 -185c143 0 211 88 211 194v242c0 70 -13 113 -69 116c-20 1 -19 25 0 25c23 0 56 -6 87 -6c40 0 79 6 92 6c19 0 20 -24 0 -25c-56 -3 -69 -31 -69 -116v-243zM462 643h-57l-68 46
c-51 35 -79 57 -79 77c0 22 20 32 40 32c30 0 51 -20 100 -79zM397 669h11l-88 85c-21 21 -40 1 -24 -11z" />
    <glyph glyph-name="Ydieresis" unicode="&#x178;" horiz-adv-x="697" 
d="M250 475c-27 41 -35 63 -35 85h-74c15 -15 32 -35 80 -108l110 -165c5 -8 5 -10 5 -20v-135c0 -39 -2 -81 -18 -102h72c-17 20 -18 53 -18 102v150c0 9 -1 9 -7 19zM489 461c61 85 52 110 -8 113c-19 1 -19 25 0 25c24 0 57 -6 88 -6c40 0 78 6 92 6c19 0 20 -24 0 -25
c-53 -3 -62 -27 -124 -114l-117 -164c-4 -6 -5 -10 -5 -18v-146c0 -84 13 -114 69 -116c20 -1 19 -25 0 -25c-14 0 -63 9 -122 9c-48 0 -98 -9 -122 -9c-19 0 -20 24 0 25c56 2 69 46 69 116v132c0 7 0 9 -4 15l-118 179c-59 89 -75 114 -134 116c-20 1 -19 25 0 25
c24 0 73 -9 122 -9c58 0 108 9 121 9c19 0 20 -24 0 -25c-55 -2 -53 -23 8 -116l76 -115c9 -14 16 -14 26 1zM349 643l65 76c49 58 70 79 99 79c20 0 41 -10 41 -32c0 -20 -28 -43 -79 -77l-69 -46h-57zM402 669l92 74c16 13 -3 33 -23 11l-80 -85h11z" />
    <glyph glyph-name="aacute" unicode="&#xe1;" horiz-adv-x="486" 
d="M59 73c0 -51 40 -76 94 -65c-45 10 -81 61 -80 105c-6 -8 -14 -22 -14 -40zM121 105c0 -31 24 -54 62 -54c53 0 69 25 69 86v64c-78 -18 -131 -45 -131 -96zM279 260v-162c0 -47 -2 -77 46 -93l4 7c-24 34 -22 53 -22 105v112c0 38 2 60 -35 106c6 -16 7 -45 7 -75z
M71 277c0 -10 4 -16 12 -16c21 0 22 39 25 69c-22 -14 -37 -36 -37 -53zM460 91c0 -55 -43 -112 -125 -112c-37 0 -67 18 -84 52c-38 -33 -81 -51 -120 -51c-62 0 -97 32 -97 98c0 93 132 142 218 155v38c0 48 -8 78 -39 78c-79 0 -44 -126 -123 -126c-18 0 -45 8 -45 46
c0 85 113 116 177 116c75 0 128 -25 128 -133v-145c0 -45 8 -72 34 -72c20 0 48 25 56 61c3 13 20 10 20 -5zM167 429l65 76c49 58 70 78 99 78c20 0 41 -9 41 -32c0 -19 -29 -41 -80 -76l-68 -46h-57zM220 455l92 74c16 13 -2 31 -23 10l-81 -84h12z" />
    <glyph glyph-name="acircumflex" unicode="&#xe2;" horiz-adv-x="486" 
d="M59 73c0 -51 40 -76 94 -65c-45 10 -81 61 -80 105c-6 -8 -14 -22 -14 -40zM121 105c0 -31 24 -54 62 -54c53 0 69 25 69 86v64c-78 -18 -131 -45 -131 -96zM279 260v-162c0 -47 -2 -77 46 -93l4 7c-24 34 -22 53 -22 105v112c0 38 2 60 -35 106c6 -16 7 -45 7 -75z
M71 277c0 -10 4 -16 12 -16c21 0 22 39 25 69c-22 -14 -37 -36 -37 -53zM460 91c0 -55 -43 -112 -125 -112c-37 0 -67 18 -84 52c-38 -33 -81 -51 -120 -51c-62 0 -97 32 -97 98c0 93 132 142 218 155v38c0 48 -8 78 -39 78c-79 0 -44 -126 -123 -126c-18 0 -45 8 -45 46
c0 85 113 116 177 116c75 0 128 -25 128 -133v-145c0 -45 8 -72 34 -72c20 0 48 25 56 61c3 13 20 10 20 -5zM219 557c44 0 46 0 57 -15l64 -89c14 -19 7 -24 -31 -24c-27 0 -32 1 -42 11l-76 74l-77 -76c-8 -8 -13 -9 -28 -9s-19 5 -13 15l81 97c10 16 13 16 65 16z
M300 455l-48 64h-32l64 -64h16z" />
    <glyph glyph-name="adieresis" unicode="&#xe4;" horiz-adv-x="486" 
d="M59 73c0 -51 40 -76 94 -65c-45 10 -81 61 -80 105c-6 -8 -14 -22 -14 -40zM121 105c0 -31 24 -54 62 -54c53 0 69 25 69 86v64c-78 -18 -131 -45 -131 -96zM279 260v-162c0 -47 -2 -77 46 -93l4 7c-24 34 -22 53 -22 105v112c0 38 2 60 -35 106c6 -16 7 -45 7 -75z
M71 277c0 -10 4 -16 12 -16c21 0 22 39 25 69c-22 -14 -37 -36 -37 -53zM460 91c0 -55 -43 -112 -125 -112c-37 0 -67 18 -84 52c-38 -33 -81 -51 -120 -51c-62 0 -97 32 -97 98c0 93 132 142 218 155v38c0 48 -8 78 -39 78c-79 0 -44 -126 -123 -126c-18 0 -45 8 -45 46
c0 85 113 116 177 116c75 0 128 -25 128 -133v-145c0 -45 8 -72 34 -72c20 0 48 25 56 61c3 13 20 10 20 -5zM122 532c28 0 52 -23 52 -51c0 -29 -24 -52 -52 -52c-29 0 -52 23 -52 52c0 28 23 51 52 51zM111 494c-9 0 -17 -7 -17 -16s8 -16 17 -16c8 0 16 7 16 16
s-8 16 -16 16zM307 532c28 0 52 -23 52 -51c0 -29 -24 -52 -52 -52c-29 0 -52 23 -52 52c0 28 23 51 52 51zM296 494c-9 0 -17 -7 -17 -16s8 -16 17 -16c8 0 16 7 16 16s-8 16 -16 16z" />
    <glyph glyph-name="agrave" unicode="&#xe0;" horiz-adv-x="486" 
d="M59 73c0 -51 40 -76 94 -65c-45 10 -81 61 -80 105c-6 -8 -14 -22 -14 -40zM121 105c0 -31 24 -54 62 -54c53 0 69 25 69 86v64c-78 -18 -131 -45 -131 -96zM279 260v-162c0 -47 -2 -77 46 -93l4 7c-24 34 -22 53 -22 105v112c0 38 2 60 -35 106c6 -16 7 -45 7 -75z
M71 277c0 -10 4 -16 12 -16c21 0 22 39 25 69c-22 -14 -37 -36 -37 -53zM460 91c0 -55 -43 -112 -125 -112c-37 0 -67 18 -84 52c-38 -33 -81 -51 -120 -51c-62 0 -97 32 -97 98c0 93 132 142 218 155v38c0 48 -8 78 -39 78c-79 0 -44 -126 -123 -126c-18 0 -45 8 -45 46
c0 85 113 116 177 116c75 0 128 -25 128 -133v-145c0 -45 8 -72 34 -72c20 0 48 25 56 61c3 13 20 10 20 -5zM273 429h-57l-68 46c-51 35 -80 57 -80 76c0 23 21 32 41 32c29 0 50 -20 99 -78zM207 455h12l-88 84c-22 21 -40 2 -24 -10z" />
    <glyph glyph-name="aring" unicode="&#xe5;" horiz-adv-x="486" 
d="M59 73c0 -51 40 -76 94 -65c-45 10 -81 61 -80 105c-6 -8 -14 -22 -14 -40zM121 105c0 -31 24 -54 62 -54c53 0 69 25 69 86v64c-78 -18 -131 -45 -131 -96zM279 260v-162c0 -47 -2 -77 46 -93l4 7c-24 34 -22 53 -22 105v112c0 38 2 60 -35 106c6 -16 7 -45 7 -75z
M71 277c0 -10 4 -16 12 -16c21 0 22 39 25 69c-22 -14 -37 -36 -37 -53zM460 91c0 -55 -43 -112 -125 -112c-37 0 -67 18 -84 52c-38 -33 -81 -51 -120 -51c-62 0 -97 32 -97 98c0 93 132 142 218 155v38c0 48 -8 78 -39 78c-79 0 -44 -126 -123 -126c-18 0 -45 8 -45 46
c0 85 113 116 177 116c75 0 128 -25 128 -133v-145c0 -45 8 -72 34 -72c20 0 48 25 56 61c3 13 20 10 20 -5zM214 606c50 0 89 -40 89 -89s-39 -88 -89 -88c-49 0 -89 39 -89 88s40 89 89 89zM234 574c23 -9 32 -34 32 -56c0 -24 -8 -54 -40 -63c38 2 54 35 54 63
c0 24 -16 52 -46 56zM167 575c-17 -11 -27 -33 -27 -57c0 -28 13 -58 41 -67c-19 16 -27 43 -27 67c0 22 4 45 13 57zM214 567c-27 0 -37 -29 -37 -50s10 -50 37 -50c28 0 38 29 38 50s-10 50 -38 50z" />
    <glyph glyph-name="atilde" unicode="&#xe3;" horiz-adv-x="486" 
d="M299 473c-53 -70 -127 57 -181 10c37 84 102 -38 181 -10zM347 546h-25c-4 -8 -7 -21 -13 -27c-14 -16 -31 -17 -47 -13c-59 15 -68 53 -125 36c-45 -14 -57 -74 -65 -113h25c9 20 14 28 23 34c14 11 28 10 42 4c52 -22 72 -53 123 -34c36 14 56 84 62 113zM460 91
c0 15 -17 18 -20 5c-8 -36 -36 -61 -56 -61c-26 0 -34 27 -34 72v145c0 108 -53 133 -128 133c-64 0 -177 -31 -177 -116c0 -38 27 -46 45 -46c79 0 44 126 123 126c31 0 39 -30 39 -78v-38c-86 -13 -218 -62 -218 -155c0 -66 35 -98 97 -98c39 0 82 18 120 51
c17 -34 47 -52 84 -52c82 0 125 57 125 112zM71 277c0 17 15 39 37 53c-3 -30 -4 -69 -25 -69c-8 0 -12 6 -12 16zM279 98v162c0 30 -1 59 -7 75c37 -46 35 -68 35 -106v-112c0 -52 -2 -71 22 -105l-4 -7c-48 16 -46 46 -46 93zM121 105c0 51 53 78 131 96v-64
c0 -61 -16 -86 -69 -86c-38 0 -62 23 -62 54zM59 73c0 18 8 32 14 40c-1 -44 35 -95 80 -105c-54 -11 -94 14 -94 65z" />
    <glyph glyph-name="ccedilla" unicode="&#xe7;" horiz-adv-x="453" 
d="M308 322c9 -25 12 -58 27 -51c18 6 -10 44 -27 51zM117 321c-35 -24 -55 -90 -55 -139c0 -51 22 -102 57 -140c-18 31 -33 101 -33 140c0 56 13 105 31 139zM196 -77c45 1 86 -23 86 -73c0 -7 -5 -20 -6 -25c7 7 14 25 14 44c0 39 -45 67 -89 64zM224 -21l-9 -21
c-1 -4 -1 -6 5 -6c38 0 94 -26 94 -83c0 -50 -43 -96 -94 -96c-22 0 -43 8 -51 16c-8 6 0 17 8 12c11 -6 29 -11 43 -11c30 0 44 31 44 60c0 46 -41 61 -74 58c-10 0 -11 6 -9 12l25 60c-100 11 -168 98 -168 202c0 111 69 203 190 203c113 0 160 -58 160 -113
c0 -30 -15 -48 -43 -48c-74 0 -43 130 -117 130c-60 0 -94 -77 -94 -172c0 -96 42 -149 122 -149c47 0 72 15 106 46c17 15 32 -5 21 -18c-30 -35 -94 -82 -155 -82h-4z" />
    <glyph glyph-name="eacute" unicode="&#xe9;" horiz-adv-x="415" 
d="M108 321c-35 -24 -54 -90 -54 -139c0 -51 21 -102 57 -140c-19 31 -34 101 -34 140c0 56 13 105 31 139zM293 321c10 -25 16 -49 17 -87c6 1 35 1 35 1c0 42 -39 81 -52 86zM125 182c0 -96 43 -149 122 -149c47 0 73 15 107 46c16 15 31 -5 20 -18
c-30 -35 -94 -82 -154 -82c-113 0 -191 91 -191 203c0 111 70 203 191 203c112 0 165 -102 165 -156c0 -26 -1 -27 -25 -27h-219c-13 0 -16 -4 -16 -20zM142 235h131c12 0 16 4 16 14c0 37 -17 105 -69 105c-45 0 -76 -43 -88 -104c-1 -11 1 -15 10 -15zM190 429l65 76
c49 58 70 78 99 78c20 0 41 -9 41 -32c0 -19 -29 -41 -80 -76l-68 -46h-57zM243 455l92 74c16 13 -2 32 -23 10l-80 -84h11z" />
    <glyph glyph-name="ecircumflex" unicode="&#xea;" horiz-adv-x="415" 
d="M108 321c-35 -24 -54 -90 -54 -139c0 -51 21 -102 57 -140c-19 31 -34 101 -34 140c0 56 13 105 31 139zM293 321c10 -25 16 -49 17 -87c6 1 35 1 35 1c0 42 -39 81 -52 86zM125 182c0 -96 43 -149 122 -149c47 0 73 15 107 46c16 15 31 -5 20 -18
c-30 -35 -94 -82 -154 -82c-113 0 -191 91 -191 203c0 111 70 203 191 203c112 0 165 -102 165 -156c0 -26 -1 -27 -25 -27h-219c-13 0 -16 -4 -16 -20zM142 235h131c12 0 16 4 16 14c0 37 -17 105 -69 105c-45 0 -76 -43 -88 -104c-1 -11 1 -15 10 -15zM214 557
c44 0 47 -1 57 -15l64 -89c14 -19 8 -24 -31 -24c-27 0 -31 2 -41 11l-76 74l-77 -76c-8 -8 -13 -9 -29 -9c-14 0 -20 6 -12 15l81 97c10 16 12 16 64 16zM296 455l-49 64h-31l64 -64h16z" />
    <glyph glyph-name="edieresis" unicode="&#xeb;" horiz-adv-x="415" 
d="M108 321c-35 -24 -54 -90 -54 -139c0 -51 21 -102 57 -140c-19 31 -34 101 -34 140c0 56 13 105 31 139zM293 321c10 -25 16 -49 17 -87c6 1 35 1 35 1c0 42 -39 81 -52 86zM125 182c0 -96 43 -149 122 -149c47 0 73 15 107 46c16 15 31 -5 20 -18
c-30 -35 -94 -82 -154 -82c-113 0 -191 91 -191 203c0 111 70 203 191 203c112 0 165 -102 165 -156c0 -26 -1 -27 -25 -27h-219c-13 0 -16 -4 -16 -20zM142 235h131c12 0 16 4 16 14c0 37 -17 105 -69 105c-45 0 -76 -43 -88 -104c-1 -11 1 -15 10 -15zM128 532
c28 0 52 -23 52 -51c0 -29 -24 -52 -52 -52c-29 0 -52 23 -52 52c0 28 23 51 52 51zM117 494c-9 0 -17 -7 -17 -16s8 -16 17 -16c8 0 16 7 16 16s-8 16 -16 16zM313 532c28 0 52 -23 52 -51c0 -29 -24 -52 -52 -52c-29 0 -52 23 -52 52c0 28 23 51 52 51zM302 494
c-9 0 -17 -7 -17 -16s8 -16 17 -16c8 0 16 7 16 16s-8 16 -16 16z" />
    <glyph glyph-name="egrave" unicode="&#xe8;" horiz-adv-x="415" 
d="M108 321c-35 -24 -54 -90 -54 -139c0 -51 21 -102 57 -140c-19 31 -34 101 -34 140c0 56 13 105 31 139zM293 321c10 -25 16 -49 17 -87c6 1 35 1 35 1c0 42 -39 81 -52 86zM125 182c0 -96 43 -149 122 -149c47 0 73 15 107 46c16 15 31 -5 20 -18
c-30 -35 -94 -82 -154 -82c-113 0 -191 91 -191 203c0 111 70 203 191 203c112 0 165 -102 165 -156c0 -26 -1 -27 -25 -27h-219c-13 0 -16 -4 -16 -20zM142 235h131c12 0 16 4 16 14c0 37 -17 105 -69 105c-45 0 -76 -43 -88 -104c-1 -11 1 -15 10 -15zM252 429h-58l-68 46
c-51 35 -79 57 -79 76c0 23 20 32 40 32c30 0 50 -20 100 -78zM186 455h11l-88 84c-22 21 -40 2 -23 -10z" />
    <glyph glyph-name="iacute" unicode="&#xed;" horiz-adv-x="308" 
d="M105 236c0 88 -7 111 -61 113c-20 1 -19 26 0 25c47 -2 105 -1 141 3c13 1 17 -7 17 -21v-224c0 -84 8 -114 61 -116c20 -1 19 -25 0 -25c-14 0 -55 9 -113 9c-49 0 -82 -9 -106 -9c-19 0 -20 24 0 25c54 2 61 28 61 116v104zM159 338h-46c17 -21 18 -63 18 -102v-104
c0 -39 -1 -81 -18 -102h64c-17 20 -18 53 -18 102v206zM93 429l65 76c49 58 70 78 100 78c19 0 40 -9 40 -32c0 -19 -27 -42 -79 -76l-69 -46h-57zM146 455l93 74c16 12 -3 32 -24 10l-80 -84h11z" />
    <glyph glyph-name="icircumflex" unicode="&#xee;" horiz-adv-x="308" 
d="M105 236c0 88 -7 111 -61 113c-20 1 -19 26 0 25c47 -2 105 -1 141 3c13 1 17 -7 17 -21v-224c0 -84 8 -114 61 -116c20 -1 19 -25 0 -25c-14 0 -55 9 -113 9c-49 0 -82 -9 -106 -9c-19 0 -20 24 0 25c54 2 61 28 61 116v104zM159 338h-46c17 -21 18 -63 18 -102v-104
c0 -39 -1 -81 -18 -102h64c-17 20 -18 53 -18 102v206zM140 557c44 0 47 -1 57 -15l64 -89c14 -19 8 -24 -31 -24c-27 0 -32 1 -42 11l-76 74l-77 -76c-8 -7 -13 -9 -28 -9s-20 6 -12 15l80 97c11 16 13 16 65 16zM221 455l-48 64h-31l64 -64h15z" />
    <glyph glyph-name="idieresis" unicode="&#xef;" horiz-adv-x="308" 
d="M105 236c0 88 -7 111 -61 113c-20 1 -19 26 0 25c47 -2 105 -1 141 3c13 1 17 -7 17 -21v-224c0 -84 8 -114 61 -116c20 -1 19 -25 0 -25c-14 0 -55 9 -113 9c-49 0 -82 -9 -106 -9c-19 0 -20 24 0 25c54 2 61 28 61 116v104zM159 338h-46c17 -21 18 -63 18 -102v-104
c0 -39 -1 -81 -18 -102h64c-17 20 -18 53 -18 102v206zM52 532c28 0 52 -23 52 -51c0 -29 -24 -52 -52 -52c-29 0 -52 23 -52 52c0 28 23 51 52 51zM41 494c-9 0 -17 -7 -17 -16s8 -16 17 -16c8 0 16 7 16 16s-8 16 -16 16zM237 532c28 0 52 -23 52 -51
c0 -29 -24 -52 -52 -52c-29 0 -52 23 -52 52c0 28 23 51 52 51zM226 494c-9 0 -17 -7 -17 -16s8 -16 17 -16c8 0 16 7 16 16s-8 16 -16 16z" />
    <glyph glyph-name="igrave" unicode="&#xec;" horiz-adv-x="308" 
d="M105 236c0 88 -7 111 -61 113c-20 1 -19 26 0 25c47 -2 105 -1 141 3c13 1 17 -7 17 -21v-224c0 -84 8 -114 61 -116c20 -1 19 -25 0 -25c-14 0 -55 9 -113 9c-49 0 -82 -9 -106 -9c-19 0 -20 24 0 25c54 2 61 28 61 116v104zM159 338h-46c17 -21 18 -63 18 -102v-104
c0 -39 -1 -81 -18 -102h64c-17 20 -18 53 -18 102v206zM170 429h-57l-68 46c-51 35 -80 57 -80 76c0 23 21 32 41 32c29 0 50 -20 99 -78zM105 455h11l-88 84c-22 21 -40 2 -24 -10z" />
    <glyph glyph-name="ntilde" unicode="&#xf1;" horiz-adv-x="559" 
d="M356 473c-53 -70 -127 57 -181 10c37 84 102 -38 181 -10zM404 546h-25c-4 -8 -6 -21 -13 -27c-14 -16 -31 -17 -47 -13c-59 15 -67 53 -125 36c-45 -14 -57 -74 -65 -113h25c9 20 15 28 23 34c14 11 28 10 43 4c51 -22 71 -53 122 -34c36 14 56 84 62 113zM356 221v-89
c0 -88 2 -114 -52 -116c-20 -1 -19 -25 0 -25c24 0 49 9 97 9c59 0 99 -9 113 -9c19 0 20 24 0 25c-52 2 -60 32 -60 116v89c0 108 -23 164 -113 164c-58 0 -106 -26 -139 -48v19c0 14 -4 22 -17 21c-36 -4 -94 -5 -141 -3c-19 1 -20 -24 0 -25c54 -2 61 -25 61 -113v-104
c0 -88 -7 -114 -61 -116c-20 -1 -19 -25 0 -25c24 0 57 9 106 9c58 0 90 -9 104 -9c19 0 20 24 0 25c-53 2 -52 32 -52 116v154c0 10 0 14 7 20c17 15 49 30 85 30c52 0 62 -45 62 -115zM411 221v-89c0 -49 0 -82 18 -102h-64c16 21 18 63 18 102v89c0 62 -4 89 -25 119
c40 -15 53 -52 53 -119zM159 236v-104c0 -49 1 -82 18 -102h-64c17 21 18 63 18 102v104c0 39 -1 81 -18 102h46v-102z" />
    <glyph glyph-name="oacute" unicode="&#xf3;" horiz-adv-x="440" 
d="M220 385c112 0 190 -92 190 -203c0 -112 -78 -203 -190 -203c-113 0 -191 91 -191 203c0 111 70 203 191 203zM220 354c-61 0 -95 -77 -95 -172c0 -96 39 -172 95 -172c55 0 94 76 94 172c0 95 -39 172 -94 172zM108 321c-35 -24 -54 -90 -54 -139c0 -51 21 -102 57 -140
c-19 31 -34 101 -34 140c0 56 13 105 31 139zM303 316c24 -21 35 -80 35 -134c0 -45 -17 -109 -30 -134c27 25 56 82 56 134c0 68 -20 108 -61 134zM192 429l65 76c49 58 70 78 99 78c20 0 41 -9 41 -32c0 -19 -29 -41 -80 -76l-68 -46h-57zM245 455l92 74
c16 13 -2 31 -23 10l-81 -84h12z" />
    <glyph glyph-name="ocircumflex" unicode="&#xf4;" horiz-adv-x="440" 
d="M220 385c112 0 190 -92 190 -203c0 -112 -78 -203 -190 -203c-113 0 -191 91 -191 203c0 111 70 203 191 203zM220 354c-61 0 -95 -77 -95 -172c0 -96 39 -172 95 -172c55 0 94 76 94 172c0 95 -39 172 -94 172zM108 321c-35 -24 -54 -90 -54 -139c0 -51 21 -102 57 -140
c-19 31 -34 101 -34 140c0 56 13 105 31 139zM303 316c24 -21 35 -80 35 -134c0 -45 -17 -109 -30 -134c27 25 56 82 56 134c0 68 -20 108 -61 134zM218 557c44 0 46 0 57 -15l64 -89c14 -19 8 -24 -31 -24c-27 0 -32 1 -42 11l-76 74l-77 -76c-8 -8 -13 -9 -28 -9
s-20 6 -12 15l80 97c10 16 13 16 65 16zM299 455l-48 64h-31l63 -64h16z" />
    <glyph glyph-name="odieresis" unicode="&#xf6;" horiz-adv-x="440" 
d="M220 385c112 0 190 -92 190 -203c0 -112 -78 -203 -190 -203c-113 0 -191 91 -191 203c0 111 70 203 191 203zM220 354c-61 0 -95 -77 -95 -172c0 -96 39 -172 95 -172c55 0 94 76 94 172c0 95 -39 172 -94 172zM108 321c-35 -24 -54 -90 -54 -139c0 -51 21 -102 57 -140
c-19 31 -34 101 -34 140c0 56 13 105 31 139zM303 316c24 -21 35 -80 35 -134c0 -45 -17 -109 -30 -134c27 25 56 82 56 134c0 68 -20 108 -61 134zM127 532c29 0 52 -23 52 -51c0 -29 -23 -52 -52 -52c-28 0 -52 23 -52 52c0 28 24 51 52 51zM116 494c-9 0 -17 -7 -17 -16
s8 -16 17 -16c8 0 16 7 16 16s-8 16 -16 16zM312 532c29 0 52 -23 52 -51c0 -29 -23 -52 -52 -52s-52 23 -52 52c0 28 23 51 52 51zM301 494c-9 0 -17 -7 -17 -16s8 -16 17 -16c8 0 16 7 16 16s-8 16 -16 16z" />
    <glyph glyph-name="ograve" unicode="&#xf2;" horiz-adv-x="440" 
d="M220 385c112 0 190 -92 190 -203c0 -112 -78 -203 -190 -203c-113 0 -191 91 -191 203c0 111 70 203 191 203zM220 354c-61 0 -95 -77 -95 -172c0 -96 39 -172 95 -172c55 0 94 76 94 172c0 95 -39 172 -94 172zM108 321c-35 -24 -54 -90 -54 -139c0 -51 21 -102 57 -140
c-19 31 -34 101 -34 140c0 56 13 105 31 139zM303 316c24 -21 35 -80 35 -134c0 -45 -17 -109 -30 -134c27 25 56 82 56 134c0 68 -20 108 -61 134zM262 429h-57l-68 46c-51 35 -80 57 -80 76c0 23 21 32 41 32c29 0 50 -20 99 -78zM196 455h11l-88 84c-21 21 -39 2 -23 -10
z" />
    <glyph glyph-name="otilde" unicode="&#xf5;" horiz-adv-x="440" 
d="M318 473c-53 -70 -127 57 -181 10c37 84 102 -38 181 -10zM366 546h-25c-4 -8 -7 -21 -13 -27c-14 -16 -31 -17 -47 -13c-59 15 -68 53 -125 36c-45 -14 -57 -74 -65 -113h25c9 20 15 28 23 34c14 11 28 10 43 4c51 -22 71 -53 122 -34c36 14 56 84 62 113zM303 316
c41 -26 61 -66 61 -134c0 -52 -29 -109 -56 -134c13 25 30 89 30 134c0 54 -11 113 -35 134zM108 321c-18 -34 -31 -83 -31 -139c0 -39 15 -109 34 -140c-36 38 -57 89 -57 140c0 49 19 115 54 139zM220 354c55 0 94 -77 94 -172c0 -96 -39 -172 -94 -172
c-56 0 -95 76 -95 172c0 95 34 172 95 172zM220 385c-121 0 -191 -92 -191 -203c0 -112 78 -203 191 -203c112 0 190 91 190 203c0 111 -78 203 -190 203z" />
    <glyph glyph-name="uacute" unicode="&#xfa;" horiz-adv-x="559" 
d="M159 338h-46c17 -21 18 -63 18 -102v-93c0 -66 13 -103 53 -118c-21 29 -25 56 -25 118v195zM454 129c0 -88 7 -111 60 -113c20 -1 19 -27 0 -26c-46 2 -104 1 -141 -2c-13 -1 -17 7 -17 21v19c-33 -22 -81 -48 -138 -48c-91 0 -113 55 -113 163v93c0 88 -7 111 -61 113
c-20 1 -19 26 0 25c47 -2 105 -1 141 3c13 1 17 -7 17 -21v-213c0 -70 11 -114 62 -114c36 0 68 15 85 30c7 6 7 10 7 20v157c0 88 -7 111 -60 113c-20 1 -19 26 0 25c46 -2 104 -1 140 3c13 1 18 -7 18 -21v-227zM411 338h-46c16 -21 18 -63 18 -102v-107v-102h46
c-17 21 -18 63 -18 102v209zM232 429l64 76c49 59 70 78 100 78c20 0 40 -9 40 -32c0 -19 -28 -41 -79 -76l-68 -46h-57zM284 455l93 74c16 12 -2 31 -23 10l-81 -84h11z" />
    <glyph glyph-name="ucircumflex" unicode="&#xfb;" horiz-adv-x="559" 
d="M159 338h-46c17 -21 18 -63 18 -102v-93c0 -66 13 -103 53 -118c-21 29 -25 56 -25 118v195zM454 129c0 -88 7 -111 60 -113c20 -1 19 -27 0 -26c-46 2 -104 1 -141 -2c-13 -1 -17 7 -17 21v19c-33 -22 -81 -48 -138 -48c-91 0 -113 55 -113 163v93c0 88 -7 111 -61 113
c-20 1 -19 26 0 25c47 -2 105 -1 141 3c13 1 17 -7 17 -21v-213c0 -70 11 -114 62 -114c36 0 68 15 85 30c7 6 7 10 7 20v157c0 88 -7 111 -60 113c-20 1 -19 26 0 25c46 -2 104 -1 140 3c13 1 18 -7 18 -21v-227zM411 338h-46c16 -21 18 -63 18 -102v-107v-102h46
c-17 21 -18 63 -18 102v209zM270 557c44 0 46 0 57 -15l64 -89c14 -19 7 -24 -31 -24c-27 0 -32 1 -42 11l-76 74l-77 -76c-8 -8 -13 -9 -28 -9s-19 5 -13 15l81 97c10 16 13 16 65 16zM351 455l-48 64h-32l64 -64h16z" />
    <glyph glyph-name="udieresis" unicode="&#xfc;" horiz-adv-x="559" 
d="M159 338h-46c17 -21 18 -63 18 -102v-93c0 -66 13 -103 53 -118c-21 29 -25 56 -25 118v195zM454 129c0 -88 7 -111 60 -113c20 -1 19 -27 0 -26c-46 2 -104 1 -141 -2c-13 -1 -17 7 -17 21v19c-33 -22 -81 -48 -138 -48c-91 0 -113 55 -113 163v93c0 88 -7 111 -61 113
c-20 1 -19 26 0 25c47 -2 105 -1 141 3c13 1 17 -7 17 -21v-213c0 -70 11 -114 62 -114c36 0 68 15 85 30c7 6 7 10 7 20v157c0 88 -7 111 -60 113c-20 1 -19 26 0 25c46 -2 104 -1 140 3c13 1 18 -7 18 -21v-227zM411 338h-46c16 -21 18 -63 18 -102v-107v-102h46
c-17 21 -18 63 -18 102v209zM175 532c28 0 51 -23 51 -51c0 -29 -23 -52 -51 -52c-29 0 -52 23 -52 52c0 28 23 51 52 51zM163 494c-8 0 -16 -7 -16 -16s8 -16 16 -16c9 0 17 7 17 16s-8 16 -17 16zM360 532c28 0 51 -23 51 -51c0 -29 -23 -52 -51 -52c-29 0 -52 23 -52 52
c0 28 23 51 52 51zM348 494c-8 0 -16 -7 -16 -16s8 -16 16 -16c9 0 17 7 17 16s-8 16 -17 16z" />
    <glyph glyph-name="ugrave" unicode="&#xf9;" horiz-adv-x="559" 
d="M159 338h-46c17 -21 18 -63 18 -102v-93c0 -66 13 -103 53 -118c-21 29 -25 56 -25 118v195zM454 129c0 -88 7 -111 60 -113c20 -1 19 -27 0 -26c-46 2 -104 1 -141 -2c-13 -1 -17 7 -17 21v19c-33 -22 -81 -48 -138 -48c-91 0 -113 55 -113 163v93c0 88 -7 111 -61 113
c-20 1 -19 26 0 25c47 -2 105 -1 141 3c13 1 17 -7 17 -21v-213c0 -70 11 -114 62 -114c36 0 68 15 85 30c7 6 7 10 7 20v157c0 88 -7 111 -60 113c-20 1 -19 26 0 25c46 -2 104 -1 140 3c13 1 18 -7 18 -21v-227zM411 338h-46c16 -21 18 -63 18 -102v-107v-102h46
c-17 21 -18 63 -18 102v209zM296 429h-57l-68 46c-51 35 -79 57 -79 76c0 23 20 32 40 32c30 0 51 -19 100 -78zM231 455h11l-88 84c-22 21 -40 2 -23 -10z" />
    <glyph glyph-name="ydieresis" unicode="&#xff;" horiz-adv-x="549" 
d="M271 28l12 27l-115 230c-12 23 -13 37 -10 53h-42zM231 45l-100 199c-47 93 -42 103 -87 104c-20 1 -19 25 0 25c24 0 44 -6 93 -6c58 0 86 6 100 6c19 0 20 -24 0 -25c-46 -2 -48 -20 -5 -106l58 -116c10 -19 18 -18 26 -2l57 119c40 83 32 103 -18 105
c-20 1 -19 25 0 25c14 0 42 -4 74 -4c25 0 52 4 75 4c19 0 20 -24 0 -25c-36 -1 -41 -7 -87 -103l-113 -236c-84 -175 -165 -280 -250 -280c-32 0 -54 13 -54 35c0 23 20 47 81 47c63 0 81 11 134 97c41 67 48 74 16 137zM101 -232c0 0 -23 6 -40 6c-9 0 -22 -2 -22 -10
s9 -12 19 -12s33 5 43 16zM183 532c29 0 52 -23 52 -51c0 -29 -23 -52 -52 -52c-28 0 -52 23 -52 52c0 28 24 51 52 51zM172 494c-9 0 -16 -7 -16 -16s7 -16 16 -16s16 7 16 16s-7 16 -16 16zM368 532c29 0 52 -23 52 -51c0 -29 -23 -52 -52 -52c-28 0 -52 23 -52 52
c0 28 24 51 52 51zM357 494c-9 0 -16 -7 -16 -16s7 -16 16 -16s16 7 16 16s-7 16 -16 16z" />
    <glyph glyph-name="notequal" unicode="&#x2260;" horiz-adv-x="242" 
d="M159 235c38 -20 61 -46 61 -85c0 -61 -50 -113 -121 -113c-30 0 -61 13 -61 31c0 8 7 13 16 13c15 0 27 -27 49 -27c44 0 75 27 75 73c0 44 -38 75 -77 75c-5 0 -12 0 -18 -1s-9 6 -3 8c48 24 74 46 74 91c0 30 -15 52 -46 52c-19 0 -35 -12 -35 -23c0 -6 3 -10 5 -13
c4 -6 -4 -11 -10 -6c-4 5 -9 12 -9 22c0 25 27 47 70 47c45 0 71 -29 71 -70c0 -27 -12 -45 -41 -74zM162 275c8 9 14 20 14 34c0 24 -18 45 -44 48c21 -9 34 -30 34 -57c0 -9 -1 -16 -4 -25zM198 150c0 32 -36 66 -67 71l-14 -9c43 -8 73 -44 73 -85c0 -7 0 -15 -2 -22
c7 13 10 32 10 45z" />
    <glyph glyph-name="infinity" unicode="&#x221e;" horiz-adv-x="549" 
d="M271 28l12 27l-115 230c-12 23 -13 37 -10 53h-42zM231 45l-100 199c-47 93 -42 103 -87 104c-20 1 -19 25 0 25c24 0 44 -6 93 -6c58 0 86 6 100 6c19 0 20 -24 0 -25c-46 -2 -48 -20 -5 -106l58 -116c10 -19 18 -18 26 -2l57 119c40 83 32 103 -18 105
c-20 1 -19 25 0 25c14 0 42 -4 74 -4c25 0 52 4 75 4c19 0 20 -24 0 -25c-36 -1 -41 -7 -87 -103l-113 -236c-84 -175 -165 -280 -250 -280c-32 0 -54 13 -54 35c0 23 20 47 81 47c63 0 81 11 134 97c41 67 48 74 16 137zM101 -232c0 0 -23 6 -40 6c-9 0 -22 -2 -22 -10
s9 -12 19 -12s33 5 43 16zM232 429l64 76c49 59 70 78 100 78c20 0 40 -9 40 -32c0 -19 -28 -41 -79 -76l-68 -46h-57zM284 455l93 74c16 12 -2 31 -23 10l-81 -84h11z" />
    <glyph glyph-name="greaterequal" unicode="&#x2265;" horiz-adv-x="130" 
d="M80 224c14 0 26 -11 26 -26c0 -14 -12 -26 -26 -26s-26 12 -26 26c0 15 12 26 26 26zM74 205c-4 0 -7 -4 -7 -8s3 -9 7 -9c5 0 9 5 9 9s-4 8 -9 8z" />
    <glyph glyph-name="radical" unicode="&#x221a;" horiz-adv-x="335" 
d="M170 429c-44 0 -47 0 -57 14l-64 89c-14 19 -8 25 31 25c27 0 32 -2 42 -12l76 -74l77 76c8 8 13 10 28 10s20 -7 12 -16l-80 -97c-10 -16 -13 -15 -65 -15zM89 531l48 -64h32l-64 64h-16z" />
    </font>
</defs>
</svg>
